<?xml version="1.0" encoding="UTF-8"?>
<svg id="Laag_1" data-name="Laag 1" xmlns="http://www.w3.org/2000/svg" xmlns:xlink="http://www.w3.org/1999/xlink" viewBox="0 0 407.6 83.22">
  <defs>
    <style>
      .cls-1 {
        fill: url(#linear-gradient);
        stroke-width: 0px;
      }
    </style>
    <linearGradient id="linear-gradient" x1="0" y1="41.61" x2="407.6" y2="41.61" gradientUnits="userSpaceOnUse">
      <stop offset="0" stop-color="#3e7cbf"/>
      <stop offset="1" stop-color="#27afaf"/>
    </linearGradient>
  </defs>
  <path class="cls-1" d="M40.14,21.21v18.91c-1.88-.22-3.21-.33-4.75-.33-8.52,0-14.38,4.31-14.38,14.82v27.54H0V22.2h20.01v7.19c4.31-5.42,11.28-8.18,20.13-8.18ZM245.04,48.85v33.29h-19.57v-7.74c-2.98,5.75-8.96,8.74-17.69,8.74-14.38,0-22.34-8.07-22.34-18.47,0-11.06,8.07-17.91,26.65-17.91h11.94c-.33-6.08-4.42-9.51-12.72-9.51-5.75,0-12.16,1.99-16.26,5.2l-7.08-14.27c6.86-4.53,17.03-6.97,26.43-6.97,19.46,0,30.63,8.63,30.63,27.65ZM224.03,62.9v-5.2h-9.07c-6.74,0-9.18,2.43-9.18,6.08s2.88,6.08,7.85,6.08c4.65,0,8.74-2.21,10.4-6.97ZM351.43,22.2l-21.34,59.94h-20.35l-11.28-32.62-11.72,32.62h-20.35l-21.34-59.94h19.91l12.28,36.27,12.72-36.27h17.91l12.39,36.6,12.72-36.6h18.47ZM351.43,76.94l6.3-14.37c5.53,3.43,13.6,5.53,20.9,5.53s9.4-1.55,9.4-4.09c0-8.07-35.39,1.11-35.39-22.89,0-11.28,10.4-19.91,29.2-19.91,8.4,0,17.69,1.77,23.66,5.09l-6.3,14.27c-5.97-3.32-11.94-4.42-17.25-4.42-7.08,0-9.62,1.99-9.62,4.2,0,8.29,35.28-.66,35.28,23.11,0,11.06-10.17,19.69-29.64,19.69-10.17,0-20.68-2.54-26.54-6.19ZM151.05,21.21c-6.97,0-12.61,1.99-16.7,6.19V.09h-21.01v82.05h20.01v-5.97c3.98,4.76,9.84,6.97,17.69,6.97,16.26,0,29.41-11.94,29.41-31.08s-13.16-30.85-29.41-30.85ZM146.9,66.02c-7.65,0-13.85-6.2-13.85-13.85s6.2-13.85,13.85-13.85,13.85,6.2,13.85,13.85-6.2,13.85-13.85,13.85ZM75.46,83.22c-17.92,0-32.51-14.58-32.51-32.5s14.58-32.51,32.51-32.51,32.51,14.58,32.51,32.51-14.58,32.5-32.51,32.5ZM75.46,34.87c-8.74,0-15.84,7.11-15.84,15.84s7.1,15.84,15.84,15.84,15.84-7.11,15.84-15.84-7.1-15.84-15.84-15.84ZM91.45,0c-4.75,0-8.6,3.85-8.6,8.6s3.85,8.6,8.6,8.6,8.6-3.85,8.6-8.6-3.85-8.6-8.6-8.6Z"/>
</svg>