<?xml version="1.0" encoding="UTF-8"?>
<svg width="504" height="105" version="1.1" viewBox="0 0 5041 1056" xmlns="http://www.w3.org/2000/svg" xmlns:xlink="http://www.w3.org/1999/xlink">
	<path d="m528.28 0.039062c-139.97 2.6024e-4 -274.21 55.604-373.19 154.58-98.975 98.975-154.58 233.21-154.58 373.19 2.493e-4 139.97 55.604 274.21 154.58 373.19 98.975 98.975 233.21 154.58 373.18 154.58 139.97 3e-4 274.21-55.603 373.19-154.58 98.975-98.975 154.58-233.21 154.58-373.19 3e-4 -139.97-55.603-274.21-154.58-373.19-98.975-98.975-233.21-154.58-373.19-154.58zm-23.543 193.16c107.24 1e-5 192.38 103.1 213.29 238.12 2.6637 17.2-18.819 20.456-21.904 4.1016-11.242-59.597-74.811-174.82-183.26-174.82-49.954 0-173.07 33.433-173.07 231.27 0 184.19 173.86 331.54 274.28 331.54 15.1 0 52.244-9.6948 52.244-41.682 0-32.645-36.396-66.898-72.896-101.58-44.41-42.196-71.455-60.304-71.455-111.83 0-37.36 34.831-77.604 81.125-77.604 52.717 0 78.781 54.793 83.77 70.76 5.8698 18.788-15.312 29.5-25.102 9.4258-6.2474-12.811-27.474-39.488-56.131-39.488-25.436 0-42.982 20.347-42.982 40.449 0 28.733 27.793 50.381 70.053 92.641 35.567 35.567 70.583 80.225 70.232 119.65-0.45566 51.238-60.29 72.666-106.08 72.666-54.751 0-123.13-37.004-184.29-87.408-79.868-65.821-146.63-158.6-146.63-305.44 0-192.64 141.94-270.76 238.82-270.76zm3356.8 92.789c-105.64 0-117.03 96.336-117.03 116.52 0 31.04-1.3474 76.285 74.322 146.64 44.222 41.118 108.69 87.577 85.453 144.91-20.346 50.188-88.518 44.809-96.699-44.691l-71.068 4.4902c7.3218 92.667 59.849 141.23 126.48 141.23 63.027 0 120.86-37.99 120.86-128.24 0-50.546-36.709-103.66-77.898-138.81-45.701-38.997-84.547-72.486-84.547-120.7 0-33.286 17.736-54.094 39.902-54.094 28.428 0 43.895 24.42 47.498 59.668l71.676-12.742s-3.2203-114.18-118.95-114.18zm1057.3 0c-105.64 0-117.03 96.336-117.03 116.52 0 31.04-1.3473 76.285 74.322 146.64 44.222 41.118 108.69 87.577 85.453 144.91-20.346 50.188-88.518 44.809-96.699-44.691l-71.068 4.4902c7.3218 92.667 59.847 141.23 126.48 141.23 63.027 0 120.86-37.99 120.86-128.24 0-50.546-36.709-103.66-77.898-138.81-45.701-38.997-84.547-72.486-84.547-120.7 0-33.286 17.736-54.094 39.902-54.094 28.428 0 43.895 24.42 47.498 59.668l71.676-12.742s-3.2203-114.18-118.95-114.18zm-2626.8 0.24414c-65.103 5.2e-4 -117.88 52.776-117.88 117.88v272.12c0 65.103 52.776 117.88 117.88 117.88 65.103 5.2e-4 117.88-52.776 117.88-117.88v-173.49l-118.29-0.0625v75.762h41.807v96.947c0 23.936-19.404 43.338-43.34 43.338-23.935-5.2e-4 -43.338-19.403-43.338-43.338v-271.27c0-23.935 19.403-43.337 43.338-43.338 23.936-5.2e-4 43.34 19.402 43.34 43.338v57.619h76.482v-57.619c0-65.103-52.778-117.88-117.88-117.88zm-718.98 5.7637v496h212v-75h-138.01l0.5137-135.5 100.5-0.51758v-73.965l-100.5-0.51758v-135l137.5-0.51367v-74.986zm903 0v496h212v-75h-138.01l0.5137-135.5 100.5-0.51758v-73.965l-100.5-0.51758-0.5137-135.5h138.01v-75zm519.63 0.67383v383.56c0 65.103 52.776 117.88 117.88 117.88 65.103 5.2e-4 118.51-53.623 118.51-118.73v-382.71h-77.111v382.71c0 23.936-19.404 43.338-43.34 43.338-23.935-5.2e-4 -43.338-19.403-43.338-43.338v-382.71zm444.8 0v495.33h121.43c62.3-3e-4 112.8-50.504 112.8-112.8v-269.72c0-62.3-50.504-112.8-112.8-112.8zm912.39 0v383.56c0 65.103 52.776 117.88 117.88 117.88 65.103 5.2e-4 118.51-53.623 118.51-118.73v-382.71h-77.111v382.71c0 23.936-19.404 43.338-43.34 43.338-23.935-5.2e-4 -43.338-19.403-43.338-43.338v-382.71zm-3086.8 0.32617v495h75v-210h90v210h75v-495h-75v210h-90v-210zm571 0v73.977l79.5 0.52344 0.5039 420.5h73.992l0.5039-420.5 78.5-0.52344v-73.977zm903 0v495h203v-73.984l-128.5-0.51562-0.5039-420.5zm559 0v495h74v-495zm747 0v495h75v-210h90v210h75v-495h-75v210h-90v-210zm610 0v495h74v-495zm-1141.1 75.395h46.949c20.109 0 40.228 19.951 40.229 37.084v269.72c0 19.043-20.756 37.084-40.229 37.084h-46.949z" fill="#e30613"/>
</svg>
