<svg xmlns="http://www.w3.org/2000/svg" viewBox="0 0 319.15 113.39">
    <title>EngieLogo</title>
    <path
        d="M319.15 45.82C276.38 17.28 220.61 0 159.58 0S42.77 17.28 0 45.82c42.53-14.14 92.26-22.91 159.58-22.91s117.04 8.77 159.57 22.91z"
        fill-rule="evenodd" fill="#009fe3" />
    <path fill="#009fe3" class="cls-2"
        d="M135.11 60.66c-3.14 0-4.75 2.55-5.17 5.66-.46 3.43-2.26 15.34-2.66 18.37-.24 1.81-.38 3.71-2.13 4.48s-3.9-.41-5.72-2L90.59 62.65a8.21 8.21 0 0 0-5.37-2c-4.07 0-8 2.53-8 8.72v38.36a4.62 4.62 0 0 0 4.62 4.89 4.88 4.88 0 0 0 5-4.54s3-18.28 3.33-20.32c.43-2.37.8-4.23 3.08-4.94 2.07-.64 4 .56 6.95 3.12s27.2 24.47 27.2 24.47a7.77 7.77 0 0 0 5.85 2.21c2.39 0 6.73-1 6.73-8.28V66.13c-.01-3.53-2.2-5.47-4.87-5.47zm174.01 40.87c-21.2 4.6-45.43-.31-45.43-15.3 0-11.34 10.51-15.95 18.79-16.61 8.69-.7 15.48 1.13 19 4.75 2.18 2.27 1.57 5.36-2.72 5.61-3.95.24-11.35.47-17.51.71-3.5.13-5.37 2-5.37 4.52 0 2 1.5 4.28 5.52 4.3 5.77 0 20.43.12 27.7.14 4.8 0 7.17-2.68 7.17-8.2 0-8.75-7.93-22-31.14-22-21 0-36.25 10.47-36.25 27.59 0 24.29 35.74 31.7 61.92 22.67 2.48-.85 4.73-2.63 4-5.41-.66-2.48-2.67-3.42-5.68-2.77zm-245.92 0c-21.19 4.57-45.45-.31-45.45-15.3 0-11.34 10.51-15.95 18.79-16.61 8.68-.7 15.48 1.13 19 4.75 2.18 2.27 1.57 5.36-2.71 5.61-4 .24-11.36.47-17.53.71-3.5.13-5.37 2-5.37 4.52 0 2 1.5 4.28 5.53 4.3 5.77 0 20.43.12 27.7.14 4.8 0 7.17-2.68 7.17-8.2 0-8.75-7.93-22-31.14-22-21 0-36.25 10.47-36.25 27.59 0 24.29 35.74 31.7 61.92 22.67 2.48-.85 4.73-2.63 4-5.41-.64-2.48-2.64-3.42-5.66-2.77zm164.18-23.34c.46 13.24 1.72 24.22 2.06 28.06.46 5 3 6.38 5.6 6.38s5.1-1.29 5.55-6.33c.38-4.25 1.64-17.35 2.25-30.3a.77.77 0 0 0-1-.87l-13.79 2.24a.82.82 0 0 0-.67.82zm7.7-18.77a7.62 7.62 0 0 0-8.1 8c0 .56.07 2.13.16 4.07a.84.84 0 0 0 .94.79l14.4-2.33a.83.83 0 0 0 .7-.8c0-.67.06-1.37.07-1.7a7.73 7.73 0 0 0-8.17-8.03zm-21.17 21.11c-4.8 0-19.61.11-29.09.14-4.6 0-5.75 2.48-5.75 4.52 0 1.78 1.23 4.08 5.52 4.3 6.54.35 14.86.73 18.7.93 5.17.27 5.23 2.93 3.49 5.2-3.51 4.56-12 7.56-20.91 7.56-11.57 0-24.31-6.59-24.31-17 0-9.79 10.9-20.58 43.3-16 2.84.4 5.65-.11 6.35-2.74.74-2.81-1.08-4.61-4.76-5.58a78.19 78.19 0 0 0-20.43-2.38c-21.8 0-39.28 10.41-39.28 27.23 0 17.95 17.42 26.73 39.13 26.73 24.25 0 36.06-13.2 36.06-24.73 0-5.94-2.98-8.18-8.02-8.18z" />
</svg>