<?xml version="1.0" encoding="UTF-8" standalone="no"?>
<!-- Created with Inkscape (http://www.inkscape.org/) -->

<svg
   version="1.1"
   id="svg2"
   xml:space="preserve"
   width="107"
   height="107"
   viewBox="0 0 754.46667 751.50665"
   xmlns="http://www.w3.org/2000/svg"
   xmlns:svg="http://www.w3.org/2000/svg"><defs
     id="defs6"><clipPath
       clipPathUnits="userSpaceOnUse"
       id="clipPath20"><path
         d="M 5555.99,2818.13 C 5555.99,1312.2 4335.18,91.4102 2829.26,91.4102 1323.32,91.4102 102.527,1312.2 102.527,2818.13 c 0,1505.93 1220.793,2726.73 2726.733,2726.73 1505.92,0 2726.73,-1220.8 2726.73,-2726.73 z"
         id="path18" /></clipPath></defs><g
     id="g8"
     transform="matrix(1.3333333,0,0,-1.3333333,0,751.50667)"><g
       id="g10"
       transform="matrix(0.08745118,0,0,0.08745124,35.503723,35.363976)"><path
         d="m 5532.23,2818.13 c 0,-1492.81 -1210.17,-2702.97 -2702.97,-2702.97 -1492.82,0 -2702.983,1210.16 -2702.983,2702.97 0,1492.81 1210.163,2702.98 2702.983,2702.98 1492.8,0 2702.97,-1210.17 2702.97,-2702.98"
         style="fill:#ffffff;fill-opacity:1;fill-rule:nonzero;stroke:none"
         id="path12" /><g
         id="g14"><g
           id="g16"
           clip-path="url(#clipPath20)"><path
             d="m 2503.92,907.691 55.47,-840.5504 c 1.29,-16.3711 14.96,-29 31.38,-29 h 501.86 c 16.42,0 30.08,12.6289 31.38,29 l 55.47,840.5504 c 1.08,13.641 -9.7,25.309 -23.39,25.309 H 2527.3 c -13.69,0 -24.45,-11.668 -23.38,-25.309"
             style="fill:#008ad1;fill-opacity:1;fill-rule:nonzero;stroke:none"
             id="path22" /><path
             d="m 2118.21,1012.18 -398.04,11.87 c -20.17,0.54 -36.23,-16.77 -34.16,-36.851 L 1760.81,19.6406 1927.48,631.5 c 2.07,7.602 12.31,8.852 16.15,1.969 L 2296.62,0.230469 2150.39,983.59 c -2.34,16.09 -15.93,28.15 -32.18,28.59"
             style="fill:#008ad1;fill-opacity:1;fill-rule:nonzero;stroke:none"
             id="path24" /><path
             d="m 1891.13,1575.17 -201.27,-412.4 c -10.27,-21.06 3.74,-45.88 27.08,-47.96 l 401.45,-35.77 c 16.06,-1.43 30.87,8.82 35.17,24.36 l 57.3,206.6 c 9.18,33.12 34.6,59.28 67.43,69.42 l 477.35,147.39 c 28.53,8.81 22.6,50.81 -7.25,51.37 l -826.58,15.75 c -13.01,0.25 -24.98,-7.07 -30.68,-18.76"
             style="fill:#008ad1;fill-opacity:1;fill-rule:nonzero;stroke:none"
             id="path26" /><path
             d="m 1939.08,1831.39 c 0,-94.84 76.89,-171.72 171.72,-171.72 94.84,0 171.72,76.88 171.72,171.72 0,94.84 -76.88,171.72 -171.72,171.72 -94.83,0 -171.72,-76.88 -171.72,-171.72"
             style="fill:#008ad1;fill-opacity:1;fill-rule:nonzero;stroke:none"
             id="path28" /><path
             d="m 3540.29,1012.18 398.04,11.87 c 20.18,0.54 36.23,-16.77 34.16,-36.851 L 3897.7,19.6406 3731.02,631.5 c -2.07,7.602 -12.31,8.852 -16.14,1.969 L 3361.88,0.230469 3508.11,983.59 c 2.36,16.09 15.93,28.15 32.18,28.59"
             style="fill:#008ad1;fill-opacity:1;fill-rule:nonzero;stroke:none"
             id="path30" /><path
             d="m 3767.38,1575.17 201.26,-412.4 c 10.27,-21.06 -3.74,-45.88 -27.08,-47.96 l -401.43,-35.77 c -16.08,-1.43 -30.87,8.82 -35.19,24.36 l -57.29,206.6 c -9.18,33.12 -34.59,59.28 -67.44,69.42 l -477.35,147.39 c -28.53,8.81 -22.6,50.81 7.26,51.37 l 826.58,15.75 c 13.01,0.25 24.97,-7.07 30.68,-18.76"
             style="fill:#008ad1;fill-opacity:1;fill-rule:nonzero;stroke:none"
             id="path32" /><path
             d="m 3719.42,1831.39 c 0,-94.84 -76.88,-171.72 -171.72,-171.72 -94.83,0 -171.71,76.88 -171.71,171.72 0,94.84 76.88,171.72 171.71,171.72 94.84,0 171.72,-76.88 171.72,-171.72"
             style="fill:#008ad1;fill-opacity:1;fill-rule:nonzero;stroke:none"
             id="path34" /><path
             d="M 2842.72,793.16 V 225.25"
             style="fill:none;stroke:#ffffff;stroke-width:50;stroke-linecap:round;stroke-linejoin:round;stroke-miterlimit:10;stroke-dasharray:none;stroke-opacity:1"
             id="path36" /><path
             d="M 3035.1,792.238 2988.19,226.172"
             style="fill:none;stroke:#ffffff;stroke-width:50;stroke-linecap:round;stroke-linejoin:round;stroke-miterlimit:10;stroke-dasharray:none;stroke-opacity:1"
             id="path38" /><path
             d="m 2648.3,792.238 46.91,-566.066"
             style="fill:none;stroke:#ffffff;stroke-width:50;stroke-linecap:round;stroke-linejoin:round;stroke-miterlimit:10;stroke-dasharray:none;stroke-opacity:1"
             id="path40" /></g></g><path
         d="m 3048.34,1113.55 -100.22,-100.21 -100.21,100.21 100.21,100.22 100.22,-100.22"
         style="fill:#008ad1;fill-opacity:1;fill-rule:nonzero;stroke:none"
         id="path42" /><path
         d="m 2840.37,1346.73 -77.1,-77.11 -77.11,77.11 77.11,77.1 77.1,-77.1"
         style="fill:#008ad1;fill-opacity:1;fill-rule:nonzero;stroke:none"
         id="path44" /><path
         d="m 2829.25,5626.13 c -379.03,0 -746.78,-74.26 -1093.03,-220.72 C 1401.84,5263.98 1101.55,5061.53 843.699,4803.68 585.859,4545.84 383.406,4245.55 241.973,3911.16 95.5156,3564.91 21.2578,3197.16 21.2578,2818.13 21.2578,2439.11 95.5156,2071.36 241.973,1725.11 383.406,1390.72 585.859,1090.43 843.699,832.59 1101.55,574.738 1401.84,372.289 1736.22,230.852 2082.47,84.3984 2450.22,10.1484 2829.25,10.1484 c 379.03,0 746.77,74.25 1093.02,220.7036 334.4,141.437 634.68,343.886 892.52,601.738 257.86,257.84 460.31,558.13 601.74,892.52 146.45,346.25 220.71,714 220.71,1093.02 0,379.03 -74.26,746.78 -220.71,1093.03 -141.43,334.39 -343.88,634.68 -601.74,892.52 -257.84,257.85 -558.12,460.3 -892.52,601.73 -346.25,146.46 -713.99,220.72 -1093.02,220.72 z m 0,-105.02 c 1492.81,0 2702.98,-1210.16 2702.98,-2702.98 0,-1492.81 -1210.17,-2702.97 -2702.98,-2702.97 -1492.81,0 -2702.973,1210.16 -2702.973,2702.97 0,1492.82 1210.163,2702.98 2702.973,2702.98"
         style="fill:#008ad1;fill-opacity:1;fill-rule:nonzero;stroke:none"
         id="path46" /><path
         d="m 2346.76,3903.41 c 0,-71.42 21.49,-135.26 62.57,-180.77 40.45,-46.14 99.88,-73.95 175.73,-73.95 73.32,0 132.1,25.91 171.3,69.53 39.18,42.98 60.04,103.66 60.04,172.56 0,72.69 -20.23,135.27 -60.04,180.77 -39.83,45.52 -97.98,72.7 -173.21,72.7 -73.94,0 -133.37,-25.91 -173.82,-68.91 -40.44,-42.97 -62.57,-103.65 -62.57,-171.93 z m -193.42,-6.31 c 0,121.36 44.88,228.18 121.36,305.3 75.85,77.11 183.94,123.26 310.98,123.26 127.05,0 233.88,-46.15 307.83,-123.26 73.95,-77.12 116.3,-183.94 116.3,-305.3 0,-121.36 -44.24,-228.18 -120.09,-305.3 -75.85,-77.11 -183.93,-124.52 -310.99,-124.52 -127.05,0 -233.24,47.41 -307.82,124.52 -74.59,77.12 -117.57,183.94 -117.57,305.3"
         style="fill:#008ad1;fill-opacity:1;fill-rule:nonzero;stroke:none"
         id="path48" /><path
         d="m 2346.76,3903.41 c 0,-71.42 21.49,-135.26 62.57,-180.77 40.45,-46.14 99.88,-73.95 175.73,-73.95 73.32,0 132.1,25.91 171.3,69.53 39.18,42.98 60.04,103.66 60.04,172.56 0,72.69 -20.23,135.27 -60.04,180.77 -39.83,45.52 -97.98,72.7 -173.21,72.7 -73.94,0 -133.37,-25.91 -173.82,-68.91 -40.44,-42.97 -62.57,-103.65 -62.57,-171.93 z m -193.42,-6.31 c 0,121.36 44.88,228.18 121.36,305.3 75.85,77.11 183.94,123.26 310.98,123.26 127.05,0 233.88,-46.15 307.83,-123.26 73.95,-77.12 116.3,-183.94 116.3,-305.3 0,-121.36 -44.24,-228.18 -120.09,-305.3 -75.85,-77.11 -183.93,-124.52 -310.99,-124.52 -127.05,0 -233.24,47.41 -307.82,124.52 -74.59,77.12 -117.57,183.94 -117.57,305.3 z"
         style="fill:none;stroke:#008ad1;stroke-width:10.7428;stroke-linecap:butt;stroke-linejoin:miter;stroke-miterlimit:10;stroke-dasharray:none;stroke-opacity:1"
         id="path50" /><path
         d="m 3298.07,3903.41 c 0,-71.42 21.48,-135.26 62.57,-180.77 40.45,-46.14 99.87,-73.95 175.72,-73.95 73.33,0 132.11,25.91 171.3,69.53 39.18,42.98 60.04,103.66 60.04,172.56 0,72.69 -20.22,135.27 -60.04,180.77 -39.83,45.52 -97.97,72.7 -173.2,72.7 -73.95,0 -133.37,-25.91 -173.82,-68.91 -40.46,-42.97 -62.57,-103.65 -62.57,-171.93 z m -193.42,-6.31 c 0,121.36 44.87,228.18 121.35,305.3 75.85,77.11 183.94,123.26 310.99,123.26 127.05,0 233.88,-46.15 307.82,-123.26 73.96,-77.12 116.31,-183.94 116.31,-305.3 0,-121.36 -44.25,-228.18 -120.1,-305.3 -75.85,-77.11 -183.93,-124.52 -310.98,-124.52 -127.05,0 -233.24,47.41 -307.82,124.52 -74.59,77.12 -117.57,183.94 -117.57,305.3"
         style="fill:#008ad1;fill-opacity:1;fill-rule:nonzero;stroke:none"
         id="path52" /><path
         d="m 3298.07,3903.41 c 0,-71.42 21.48,-135.26 62.57,-180.77 40.45,-46.14 99.87,-73.95 175.72,-73.95 73.33,0 132.11,25.91 171.3,69.53 39.18,42.98 60.04,103.66 60.04,172.56 0,72.69 -20.22,135.27 -60.04,180.77 -39.83,45.52 -97.97,72.7 -173.2,72.7 -73.95,0 -133.37,-25.91 -173.82,-68.91 -40.46,-42.97 -62.57,-103.65 -62.57,-171.93 z m -193.42,-6.31 c 0,121.36 44.87,228.18 121.35,305.3 75.85,77.11 183.94,123.26 310.99,123.26 127.05,0 233.88,-46.15 307.82,-123.26 73.96,-77.12 116.31,-183.94 116.31,-305.3 0,-121.36 -44.25,-228.18 -120.1,-305.3 -75.85,-77.11 -183.93,-124.52 -310.98,-124.52 -127.05,0 -233.24,47.41 -307.82,124.52 -74.59,77.12 -117.57,183.94 -117.57,305.3 z"
         style="fill:none;stroke:#008ad1;stroke-width:10.7428;stroke-linecap:butt;stroke-linejoin:miter;stroke-miterlimit:10;stroke-dasharray:none;stroke-opacity:1"
         id="path54" /><path
         d="M 4277.81,4313 V 3479.92 H 4084.39 V 4313 h 193.42"
         style="fill:#008ad1;fill-opacity:1;fill-rule:nonzero;stroke:none"
         id="path56" /><path
         d="M 4277.81,4313 V 3479.92 H 4084.39 V 4313 Z"
         style="fill:none;stroke:#008ad1;stroke-width:10.7428;stroke-linecap:butt;stroke-linejoin:miter;stroke-miterlimit:10;stroke-dasharray:none;stroke-opacity:1"
         id="path58" /><path
         d="M 949.188,2606.93 H 756.395 l -97.969,195.96 -5.692,-454.48 H 459.316 l 10.75,833.09 h 193.418 l 188.36,-380.51 186.466,380.51 h 193.42 L 1245,2348.41 h -193.42 l -7.59,451.95 -94.802,-193.43"
         style="fill:#008ad1;fill-opacity:1;fill-rule:nonzero;stroke:none"
         id="path60" /><path
         d="M 949.188,2606.93 H 756.395 l -97.969,195.96 -5.692,-454.48 H 459.316 l 10.75,833.09 h 193.418 l 188.36,-380.51 186.466,380.51 h 193.42 L 1245,2348.41 h -193.42 l -7.59,451.95 z"
         style="fill:none;stroke:#008ad1;stroke-width:10.7428;stroke-linecap:butt;stroke-linejoin:miter;stroke-miterlimit:10;stroke-dasharray:none;stroke-opacity:1"
         id="path62" /><path
         d="m 1872.68,2678.35 -107.46,313.52 -107.45,-313.52 z M 1595.19,2496.95 1544,2348.41 h -204.17 l 286.33,833.09 h 281.91 l 286.97,-833.09 h -207.95 l -51.2,148.54 h -340.7"
         style="fill:#008ad1;fill-opacity:1;fill-rule:nonzero;stroke:none"
         id="path64" /><path
         d="m 1872.68,2678.35 -107.46,313.52 -107.45,-313.52 z M 1595.19,2496.95 1544,2348.41 h -204.17 l 286.33,833.09 h 281.91 l 286.97,-833.09 h -207.95 l -51.2,148.54 z"
         style="fill:none;stroke:#008ad1;stroke-width:10.7428;stroke-linecap:butt;stroke-linejoin:miter;stroke-miterlimit:10;stroke-dasharray:none;stroke-opacity:1"
         id="path66" /><path
         d="m 2658.38,2792.14 c 80.91,-127.06 221.23,-260.43 348.28,-314.78 -20.86,-36.03 -77.12,-127.69 -96.71,-141.59 -172.57,58.15 -281.91,171.93 -401.38,344.48 v 4.43 l -20.86,-13.9 h -5.05 v -322.37 h -192.79 v 833.09 h 192.79 v -310.99 h 5.05 l 254.11,310.99 h 231.97 v -5.69 l -308.46,-375.45 -6.95,-8.22"
         style="fill:#008ad1;fill-opacity:1;fill-rule:nonzero;stroke:none"
         id="path68" /><path
         d="m 2658.38,2792.14 c 80.91,-127.06 221.23,-260.43 348.28,-314.78 -20.86,-36.03 -77.12,-127.69 -96.71,-141.59 -172.57,58.15 -281.91,171.93 -401.38,344.48 v 4.43 l -20.86,-13.9 h -5.05 v -322.37 h -192.79 v 833.09 h 192.79 v -310.99 h 5.05 l 254.11,310.99 h 231.97 v -5.69 l -308.46,-375.45 z"
         style="fill:none;stroke:#008ad1;stroke-width:10.7428;stroke-linecap:butt;stroke-linejoin:miter;stroke-miterlimit:10;stroke-dasharray:none;stroke-opacity:1"
         id="path70" /><path
         d="m 3678.57,3181.5 v -182.04 h -378.61 v -147.91 h 378.61 v -173.2 h -378.61 v -147.9 h 378.61 v -182.04 h -571.39 v 833.09 h 571.39"
         style="fill:#008ad1;fill-opacity:1;fill-rule:nonzero;stroke:none"
         id="path72" /><path
         d="m 3678.57,3181.5 v -182.04 h -378.61 v -147.91 h 378.61 v -173.2 h -378.61 v -147.9 h 378.61 v -182.04 h -571.39 v 833.09 z"
         style="fill:none;stroke:#008ad1;stroke-width:10.7428;stroke-linecap:butt;stroke-linejoin:miter;stroke-miterlimit:10;stroke-dasharray:none;stroke-opacity:1"
         id="path74" /><path
         d="m 4011.06,2758.63 h 22.76 c 173.82,0 249.04,39.2 249.04,127.05 0,37.29 -13.91,65.74 -49.31,84.08 -36.02,18.32 -94.18,27.8 -183.3,27.8 h -39.19 z m -193.41,422.87 h 238.29 c 136.53,0 240.83,-20.86 311.62,-66.37 70.79,-45.51 107.46,-115.04 107.46,-213.01 0,-68.27 -13.91,-120.73 -36.67,-161.82 -23.39,-41.08 -56.89,-72.06 -95.44,-96.7 17.69,-42.35 50.57,-78.38 87.86,-108.09 37.29,-30.34 79.01,-52.47 114.4,-67.63 l 2.53,-5.69 -88.48,-125.15 c -56.26,0 -120.73,32.86 -176.98,80.26 -56.26,47.42 -104.3,110 -129.58,168.14 -46.16,-6.95 -91.67,-10.74 -141.6,-10.74 v -226.29 h -193.41 v 833.09"
         style="fill:#008ad1;fill-opacity:1;fill-rule:nonzero;stroke:none"
         id="path76" /><path
         d="m 4011.06,2758.63 h 22.76 c 173.82,0 249.04,39.2 249.04,127.05 0,37.29 -13.91,65.74 -49.31,84.08 -36.02,18.32 -94.18,27.8 -183.3,27.8 h -39.19 z m -193.41,422.87 h 238.29 c 136.53,0 240.83,-20.86 311.62,-66.37 70.79,-45.51 107.46,-115.04 107.46,-213.01 0,-68.27 -13.91,-120.73 -36.67,-161.82 -23.39,-41.08 -56.89,-72.06 -95.44,-96.7 17.69,-42.35 50.57,-78.38 87.86,-108.09 37.29,-30.34 79.01,-52.47 114.4,-67.63 l 2.53,-5.69 -88.48,-125.15 c -56.26,0 -120.73,32.86 -176.98,80.26 -56.26,47.42 -104.3,110 -129.58,168.14 -46.16,-6.95 -91.67,-10.74 -141.6,-10.74 v -226.29 h -193.41 z"
         style="fill:none;stroke:#008ad1;stroke-width:10.7428;stroke-linecap:butt;stroke-linejoin:miter;stroke-miterlimit:10;stroke-dasharray:none;stroke-opacity:1"
         id="path78" /><path
         d="m 4612.2,2575.33 c 76.47,-33.5 146,-57.52 231.33,-57.52 51.21,0 87.87,9.49 111.25,23.39 23.39,13.91 34.77,32.23 34.77,52.46 0,30.34 -25.28,49.94 -63.21,67.64 -18.97,8.21 -40.45,16.42 -64.48,24.65 -48.67,15.17 -99.86,34.13 -147.91,60.68 -48.66,26.54 -87.86,63.2 -110.61,115.67 -12,25.92 -17.7,57.51 -17.7,93.54 0,93.55 41.72,152.97 101.77,189 60.05,36.02 137.79,49.3 210.49,49.3 85.32,0 160.54,-17.69 211.11,-35.4 v -168.13 l -1.89,-2.53 c -14.54,4.43 -42.99,11.38 -77.75,17.07 -35.4,5.69 -76.48,10.11 -116.94,10.11 -35.39,0 -70.16,-3.79 -96.71,-13.28 -26.54,-9.47 -44.24,-24.64 -44.24,-49.29 0,-29.72 25.91,-50.57 65.74,-68.27 19.59,-9.48 42.34,-18.33 67.62,-26.54 50.58,-17.71 104.3,-37.3 154.87,-63.22 50.57,-25.91 91.65,-61.31 115.67,-109.35 12,-24.64 17.69,-53.09 17.69,-85.32 0,-85.34 -44.87,-151.07 -111.87,-195.96 -67,-44.87 -156.12,-68.26 -243.98,-68.26 -83.44,0 -164.35,20.86 -225.02,63.84 v 175.72"
         style="fill:#008ad1;fill-opacity:1;fill-rule:nonzero;stroke:none"
         id="path80" /><path
         d="m 4612.2,2575.33 c 76.47,-33.5 146,-57.52 231.33,-57.52 51.21,0 87.87,9.49 111.25,23.39 23.39,13.91 34.77,32.23 34.77,52.46 0,30.34 -25.28,49.94 -63.21,67.64 -18.97,8.21 -40.45,16.42 -64.48,24.65 -48.67,15.17 -99.86,34.13 -147.91,60.68 -48.66,26.54 -87.86,63.2 -110.61,115.67 -12,25.92 -17.7,57.51 -17.7,93.54 0,93.55 41.72,152.97 101.77,189 60.05,36.02 137.79,49.3 210.49,49.3 85.32,0 160.54,-17.69 211.11,-35.4 v -168.13 l -1.89,-2.53 c -14.54,4.43 -42.99,11.38 -77.75,17.07 -35.4,5.69 -76.48,10.11 -116.94,10.11 -35.39,0 -70.16,-3.79 -96.71,-13.28 -26.54,-9.47 -44.24,-24.64 -44.24,-49.29 0,-29.72 25.91,-50.57 65.74,-68.27 19.59,-9.48 42.34,-18.33 67.62,-26.54 50.58,-17.71 104.3,-37.3 154.87,-63.22 50.57,-25.91 91.65,-61.31 115.67,-109.35 12,-24.64 17.69,-53.09 17.69,-85.32 0,-85.34 -44.87,-151.07 -111.87,-195.96 -67,-44.87 -156.12,-68.26 -243.98,-68.26 -83.44,0 -164.35,20.86 -225.02,63.84 z"
         style="fill:none;stroke:#008ad1;stroke-width:10.7428;stroke-linecap:butt;stroke-linejoin:miter;stroke-miterlimit:10;stroke-dasharray:none;stroke-opacity:1"
         id="path82" /><path
         d="m 1728.61,3738.58 h -192.78 l -97.97,195.95 -5.69,-454.47 h -193.41 l 10.74,833.08 h 193.42 l 188.36,-380.51 186.46,380.51 h 193.42 l 13.27,-833.08 h -193.42 l -7.58,451.94 -94.82,-193.42"
         style="fill:#008ad1;fill-opacity:1;fill-rule:nonzero;stroke:none"
         id="path84" /><path
         d="m 1728.61,3738.58 h -192.78 l -97.97,195.95 -5.69,-454.47 h -193.41 l 10.74,833.08 h 193.42 l 188.36,-380.51 186.46,380.51 h 193.42 l 13.27,-833.08 h -193.42 l -7.58,451.94 z"
         style="fill:none;stroke:#008ad1;stroke-width:10.8825;stroke-linecap:butt;stroke-linejoin:miter;stroke-miterlimit:10;stroke-dasharray:none;stroke-opacity:1"
         id="path86" /></g></g></svg>
