<?xml version="1.0" encoding="UTF-8"?>
<svg id="Color" xmlns="http://www.w3.org/2000/svg" viewBox="0 0 1920 390">
  <defs>
    <style>
      .cls-1 {
        fill: #1e1e1e;
      }

      .cls-2 {
        fill: #04c2cb;
      }

      .cls-3 {
        fill: #05989d;
      }
    </style>
  </defs>
  <g>
    <g>
      <path class="cls-2" d="m323.65,149.32H121.72c-19.32,0-35.05-15.68-35.05-35.05,0-9.68,3.91-18.46,10.27-24.78,6.36-6.36,15.09-10.27,24.77-10.27h201.93c-19.32,0-35,15.68-35,35.05s15.68,35.05,35,35.05Z"/>
      <path class="cls-3" d="m358.7,114.27c0,19.37-15.68,35.05-35.05,35.05s-35-15.68-35-35.05,15.68-35.05,35-35.05,35.05,15.68,35.05,35.05Z"/>
    </g>
    <g>
      <path class="cls-2" d="m236.98,267.23H35.05c-19.32,0-35.05-15.68-35.05-35.05,0-9.68,3.91-18.46,10.27-24.78,6.36-6.36,15.09-10.27,24.77-10.27h201.93c-19.32,0-35,15.68-35,35.05s15.68,35.05,35,35.05Z"/>
      <path class="cls-3" d="m272.03,232.18c0,19.37-15.68,35.05-35.05,35.05s-35-15.68-35-35.05,15.68-35.05,35-35.05,35.05,15.68,35.05,35.05Z"/>
    </g>
    <g>
      <path class="cls-2" d="m323.65,385.14H121.72c-19.32,0-35.05-15.68-35.05-35.05,0-9.68,3.91-18.46,10.27-24.78,6.36-6.36,15.09-10.27,24.77-10.27h201.93c-19.32,0-35,15.68-35,35.05s15.68,35.05,35,35.05Z"/>
      <path class="cls-3" d="m358.7,350.1c0,19.37-15.68,35.05-35.05,35.05s-35-15.68-35-35.05,15.68-35.05,35-35.05,35.05,15.68,35.05,35.05Z"/>
    </g>
  </g>
  <path class="cls-3" d="m1399.17,39.78c0-10.15,3.4-18.51,10.2-25.08,6.8-6.56,16.05-9.84,27.77-9.84s20.78,3.28,27.66,9.84c6.87,6.56,10.31,14.92,10.31,25.08s-3.48,18.75-10.43,25.31c-6.95,6.56-16.13,9.84-27.54,9.84s-20.59-3.28-27.54-9.84c-6.95-6.56-10.43-15-10.43-25.31Z"/>
  <path class="cls-1" d="m567.91,309.05c12.5,0,22.65-3.44,30.46-10.31,7.81-6.87,11.88-16.01,12.19-27.42h63.51c-.16,17.19-4.84,32.93-14.06,47.23-9.22,14.29-21.83,25.39-37.85,33.28-16.02,7.89-33.71,11.84-53.08,11.84-36.25,0-64.84-11.52-85.78-34.57-20.94-23.04-31.4-54.87-31.4-95.5v-4.45c0-39.06,10.39-70.23,31.17-93.51,20.78-23.28,49.29-34.92,85.54-34.92,31.71,0,57.14,9.02,76.28,27.07,19.14,18.05,28.86,42.07,29.18,72.06h-63.51c-.32-13.19-4.38-23.91-12.19-32.16-7.81-8.25-18.13-12.37-30.93-12.37-15.78,0-27.69,5.75-35.74,17.25-8.05,11.5-12.07,30.16-12.07,55.98v7.04c0,26.13,3.98,44.91,11.95,56.33,7.97,11.43,20.07,17.14,36.33,17.14Z"/>
  <path class="cls-1" d="m702.19,229.84c0-25.15,4.84-47.58,14.53-67.26,9.69-19.69,23.63-34.92,41.83-45.7,18.2-10.78,39.33-16.17,63.39-16.17,34.22,0,62.14,10.47,83.78,31.4,21.64,20.94,33.71,49.37,36.21,85.31l.47,17.34c0,38.9-10.86,70.11-32.58,93.63-21.72,23.52-50.86,35.27-87.42,35.27s-65.74-11.72-87.53-35.16c-21.8-23.44-32.7-55.31-32.7-95.62v-3.05Zm67.73,4.81c0,24.1,4.53,42.52,13.59,55.28,9.06,12.75,22.03,19.13,38.9,19.13s29.22-6.3,38.44-18.9c9.22-12.59,13.82-32.74,13.82-60.44,0-23.63-4.61-41.93-13.82-54.92-9.22-12.99-22.19-19.48-38.91-19.48s-29.38,6.45-38.43,19.36c-9.07,12.91-13.59,32.9-13.59,59.97Z"/>
  <path class="cls-1" d="m1047.63,105.4l2.11,28.36c17.97-22.03,42.26-33.04,72.89-33.04,32.65,0,55.07,12.89,67.26,38.67,17.81-25.78,43.2-38.67,76.17-38.67,27.5,0,47.96,8.01,61.4,24.02,13.44,16.02,20.15,40.12,20.15,72.3v161.94h-67.96v-161.71c0-14.37-2.81-24.88-8.43-31.52-5.62-6.64-15.55-9.96-29.77-9.96-20.31,0-34.37,9.69-42.18,29.06l.24,174.13h-67.73v-161.47c0-14.68-2.89-25.31-8.67-31.87-5.78-6.56-15.63-9.84-29.53-9.84-19.22,0-33.13,7.97-41.72,23.9v179.28h-67.73V105.4h63.51Z"/>
  <rect class="cls-1" x="1403.15" y="105.4" width="67.96" height="253.57"/>
  <path class="cls-1" d="m1622.09,43.06v62.34h52.45v49.68h-52.45v126.55c0,9.38,1.8,16.09,5.39,20.15,3.59,4.07,10.46,6.1,20.62,6.1,7.5,0,14.14-.55,19.92-1.64v51.32c-13.28,4.06-26.95,6.1-41.01,6.1-47.5,0-71.71-23.98-72.65-71.95v-136.63h-46.12v-49.68h46.12v-62.34h67.73Z"/>
  <path class="cls-1" d="m1854.15,288.9c0-8.28-4.1-14.81-12.3-19.57-8.2-4.77-21.37-9.03-39.49-12.78-60.31-12.65-90.46-38.28-90.46-76.87,0-22.5,9.34-41.28,28.01-56.36,18.67-15.08,43.08-22.62,73.24-22.62,32.18,0,57.92,7.58,77.22,22.73,19.3,15.16,28.94,34.84,28.94,59.06h-67.73c0-9.68-3.13-17.69-9.37-24.02-6.25-6.33-16.02-9.49-29.3-9.49-11.4,0-20.23,2.58-26.48,7.73-6.25,5.16-9.38,11.72-9.38,19.69,0,7.5,3.55,13.56,10.66,18.16,7.11,4.61,19.1,8.59,35.97,11.95,16.87,3.36,31.09,7.15,42.65,11.37,35.78,13.12,53.67,35.86,53.67,68.2,0,23.12-9.92,41.83-29.76,56.13-19.84,14.3-45.46,21.45-76.87,21.45-21.25,0-40.12-3.79-56.6-11.37-16.49-7.57-29.42-17.96-38.79-31.17-9.38-13.2-14.06-27.45-14.06-42.77h64.22c.62,12.03,5.07,21.25,13.36,27.65,8.28,6.41,19.37,9.61,33.28,9.61,12.97,0,22.77-2.46,29.42-7.38,6.64-4.92,9.96-11.37,9.96-19.33Z"/>
</svg>