<svg width="193" height="82" viewBox="0 0 193 82" fill="none" xmlns="http://www.w3.org/2000/svg">
<path d="M173 41.7794V46.6715H168.231V61.57H163.303V46.6715H158.523V41.7794H173ZM139.618 59.013C138.682 59.9818 137.564 60.7453 136.331 61.2571C135.099 61.769 133.778 62.0184 132.448 61.9902C131.119 62.0184 129.798 61.769 128.565 61.2571C127.332 60.7453 126.214 59.9818 125.278 59.013C124.324 58.0633 123.57 56.9222 123.065 55.6606C122.56 54.399 122.313 53.0441 122.342 51.6805C122.312 50.3149 122.558 48.9578 123.063 47.6941C123.568 46.4304 124.322 45.2873 125.278 44.3364C126.214 43.3675 127.332 42.6039 128.565 42.0921C129.798 41.5802 131.119 41.3308 132.448 41.359C135.282 41.359 137.672 42.3514 139.618 44.3364C140.576 45.2862 141.333 46.429 141.84 47.6927C142.347 48.9565 142.594 50.3141 142.566 51.6805C142.594 53.0441 142.348 54.399 141.843 55.6606C141.337 56.9222 140.584 58.0633 139.63 59.013H139.618ZM128.726 55.5335C129.717 56.5377 130.957 57.0513 132.448 57.0513C133.14 57.0708 133.828 56.9451 134.471 56.6817C135.113 56.4183 135.696 56.0231 136.184 55.5201C136.673 55.017 137.055 54.4171 137.309 53.7567C137.563 53.0965 137.683 52.3898 137.661 51.6805C137.685 50.9706 137.566 50.2633 137.313 49.6023C137.059 48.9411 136.677 48.3404 136.188 47.837C135.7 47.3338 135.116 46.9384 134.472 46.6757C133.829 46.4129 133.14 46.2885 132.448 46.3096C131.757 46.2901 131.068 46.4158 130.426 46.6792C129.783 46.9426 129.2 47.3378 128.712 47.8408C128.224 48.3439 127.841 48.9438 127.587 49.6042C127.333 50.2644 127.213 50.9711 127.235 51.6805C127.235 53.245 127.736 54.5294 128.726 55.5335ZM150.693 61.9902C148.644 61.9902 146.959 61.5466 145.616 60.671C144.311 59.8318 143.32 58.5644 142.805 57.0747L147.028 54.5645C147.301 55.3637 147.819 56.0511 148.504 56.5245C149.189 56.9978 150.004 57.2317 150.829 57.1915C152.343 57.1915 153.094 56.7479 153.094 55.872C153.094 55.2883 152.661 54.8213 151.785 54.4711C151.421 54.3192 150.613 54.0507 149.372 53.6888C147.831 53.2815 146.4 52.5233 145.184 51.4703C144.66 50.9639 144.25 50.3463 143.983 49.6606C143.716 48.9751 143.597 48.2378 143.636 47.5006C143.636 45.6673 144.273 44.1845 145.56 43.0637C146.893 41.9086 148.596 41.3013 150.34 41.359C151.956 41.359 153.379 41.7443 154.631 42.5265C155.9 43.3194 156.901 44.4932 157.499 45.8892L153.367 48.3762C152.764 46.9051 151.762 46.1577 150.362 46.1577C149.771 46.1577 149.338 46.2862 149.031 46.5313C148.889 46.6395 148.774 46.7804 148.695 46.9427C148.615 47.105 148.575 47.284 148.576 47.4655C148.576 47.9091 148.803 48.2828 149.247 48.5863C149.702 48.8899 150.567 49.2402 151.865 49.6372L154.118 50.4544C154.699 50.688 155.336 51.015 156.008 51.482C156.691 51.949 157.203 52.5327 157.533 53.2567C157.863 53.9807 158.022 54.833 158.022 55.802C158.062 56.6705 157.9 57.5362 157.55 58.328C157.2 59.1197 156.671 59.8147 156.008 60.3557C154.47 61.5067 152.594 62.0835 150.693 61.9902ZM104.791 20.4241H109.731V40.2148H104.791V20.4241ZM50.559 40.2148L49.6257 37.3542H43.0701L42.2393 40.2148H36.89L43.0359 20.4241H49.2501L55.6237 40.2148H50.559ZM44.3334 33.0107H48.2145L46.2682 26.2737L44.3334 33.0107ZM75.2225 28.8775V30.8856C75.2225 33.7813 74.3348 36.1398 72.5707 37.938C71.6569 38.8436 70.5734 39.5496 69.3861 40.0133C68.1985 40.4769 66.9316 40.6884 65.6622 40.635C64.2938 40.6834 62.9301 40.4455 61.6544 39.9356C60.3786 39.4256 59.2174 38.6546 58.2414 37.6693C57.2926 36.7191 56.5445 35.579 56.0433 34.3196C55.542 33.0602 55.2985 31.7086 55.3278 30.3486C55.2976 28.9854 55.5383 27.6301 56.0354 26.3655C56.5323 25.1008 57.2752 23.9533 58.2188 22.9929C59.1489 22.0151 60.266 21.2449 61.4998 20.7306C62.7335 20.2164 64.0576 19.9688 65.389 20.0038C67.1108 19.9839 68.8096 20.4096 70.3285 21.2413C71.766 22.0074 72.9825 23.1468 73.8568 24.5457L69.6571 26.9976C69.2353 26.353 68.6485 25.8398 67.9612 25.5148C67.1773 25.1264 66.3162 24.9307 65.4458 24.9427C64.747 24.9139 64.05 25.0353 63.3996 25.2992C62.7492 25.5628 62.1596 25.9632 61.6688 26.4744C61.178 26.9856 60.7968 27.5963 60.5495 28.2676C60.3024 28.9387 60.1945 29.6556 60.2332 30.372C60.2332 31.8898 60.7112 33.1858 61.6786 34.2483C62.6461 35.2993 64.0004 35.8246 65.7419 35.8246C67.9839 35.8246 69.4635 34.9606 70.1806 33.2326H65.5029V28.8775H75.2225ZM27.8532 20.4241C30.5164 20.4241 32.7472 21.3698 34.534 23.2614C35.4181 24.1933 36.1113 25.2974 36.5725 26.5087C37.0338 27.7198 37.254 29.0136 37.2201 30.3135C37.2201 33.1158 36.3322 35.4744 34.534 37.3774C33.6747 38.302 32.6364 39.0319 31.4859 39.5205C30.3354 40.0091 29.098 40.2456 27.8532 40.2148H20V20.4241H27.8532ZM27.8532 35.3225C28.4625 35.3448 29.0696 35.2345 29.6345 34.999C30.1994 34.7637 30.7094 34.4084 31.131 33.9564C32.009 32.963 32.4674 31.653 32.4057 30.3135C32.4057 28.8073 31.9846 27.6048 31.131 26.694C30.7104 26.24 30.2008 25.8826 29.6359 25.645C29.0709 25.4076 28.4634 25.2956 27.8532 25.3163H25.0761V35.3225H27.8532ZM151.751 40.6467C149.702 40.6467 148.018 40.1914 146.686 39.304C145.383 38.4679 144.392 37.2049 143.875 35.7195L148.086 33.2092C148.36 34.0085 148.877 34.6959 149.562 35.1693C150.247 35.6426 151.063 35.8765 151.888 35.8363C153.401 35.8363 154.153 35.3927 154.153 34.5168C154.153 33.933 153.72 33.466 152.844 33.1158C152.479 32.964 151.671 32.6955 150.431 32.3336C148.89 31.9263 147.458 31.1681 146.242 30.115C145.718 29.6091 145.308 28.9915 145.04 28.3059C144.773 27.6202 144.655 26.8828 144.695 26.1453C144.695 24.3121 145.332 22.8293 146.618 21.7085C147.951 20.5534 149.654 19.9461 151.398 20.0038C153.014 20.0038 154.448 20.3891 155.689 21.1713C156.956 21.9616 157.957 23.1311 158.557 24.5223L154.426 27.0093C153.822 25.5499 152.821 24.8142 151.421 24.8142C150.829 24.8142 150.397 24.931 150.089 25.1761C149.947 25.2843 149.832 25.4252 149.753 25.5875C149.674 25.7498 149.633 25.9288 149.634 26.1103C149.634 26.5539 149.862 26.9276 150.317 27.2311C150.761 27.5346 151.637 27.885 152.935 28.282L155.177 29.0994C155.757 29.3328 156.395 29.6597 157.066 30.1267C157.749 30.5937 158.261 31.1775 158.591 31.9015C158.921 32.6254 159.092 33.4777 159.092 34.4468C159.132 35.3153 158.97 36.181 158.62 36.9727C158.27 37.7645 157.741 38.4594 157.078 39.0005C155.537 40.1549 153.657 40.7319 151.751 40.635V40.6467ZM165.534 35.4627H173V40.2148H160.594V20.4241H172.863V25.1412H165.534V27.885H172.169V32.5553H165.534V35.4744V35.4627ZM117.8 40.6467C114.636 40.6467 112.417 39.3157 111.131 36.6769L115.342 34.1666C115.626 34.7153 115.945 35.1008 116.309 35.3576C116.674 35.5911 117.174 35.7195 117.8 35.7195C119.212 35.7195 119.917 35.054 119.917 33.7113V20.4241H124.857V33.793C124.857 35.9297 124.219 37.5993 122.945 38.8137C121.524 40.0809 119.68 40.7339 117.8 40.635V40.6467Z" fill="white"/>
<path d="M145 39.7032L135.36 29.8168L144.943 20H138.025L127.013 31.2823V39.7149H131.924V33.3876L138.093 39.7032H145ZM81.922 34.9926H89.3616V39.7265H77V20.0116H89.2256V24.7106H81.922V27.444H88.545V32.0965H81.922V35.0042V34.9926ZM96.3363 34.8531H102.959V39.7265H91.4257V20.0116H96.3477V34.8531H96.3363ZM124.235 60.9883L114.595 51.1019L124.178 41.2851H117.26L106.248 52.579V61H111.159V54.6725L117.328 60.9883H124.235Z" fill="white"/>
</svg>
