<?xml version="1.0" encoding="UTF-8"?><svg id="Layer_1" xmlns="http://www.w3.org/2000/svg" viewBox="0 0 677.38 307.55"><defs><style>.cls-1,.cls-2,.cls-3{fill:#fb8c13;}.cls-4{fill:#0e1d53;}.cls-2{opacity:.55;}.cls-3{opacity:.25;}</style></defs><circle class="cls-3" cx="478.94" cy="153.78" r="153.78"/><circle class="cls-2" cx="478.94" cy="153.78" r="109.5"/><path class="cls-4" d="M271.26,150.66c0-37.15-25.45-62.1-61.45-62.1s-63.06,25.45-63.06,65.08,26.83,65.35,63.06,65.35c30.96,0,50.9-17.66,58.01-39.67h-28.2c-4.82,9.86-13.76,17.66-29.81,17.66-19.26,0-34.17-12.61-36-33.48h96.54c.69-4.36,.92-8.48,.92-12.84Zm-97.22-8.25c2.75-19.95,16.97-31.83,34.62-31.83,19.49,0,34.85,12.34,35.31,31.83h-69.94Z"/><path class="cls-4" d="M381.56,90.62l-35.77,102.92-35.77-102.92h-27.97l47.92,126.31h31.19l48.15-126.31h-27.75Z"/><path class="cls-4" d="M72.46,88.6h-.04c-.76-.04-1.49-.04-2.25-.04-10.28,0-19.49,2.48-27.1,6.5-7.15,3.78-12.92,8.83-16.93,14.37V47.28c0-6.61,2.14-12.73,5.77-17.69,.73-.96,1.49-1.91,2.29-2.79L21.12,4.18c-2.79,1.72-5.35,3.75-7.68,5.96C4.27,18.89,0,33.6,0,47.28V216.93H26.14v-18.34c8.25,11.01,23.16,20.41,44.03,20.41,33.25,0,59.39-26.83,59.39-65.81s-24.73-63.44-57.1-64.59Zm-8.03,107.69c-19.49,0-38.29-15.36-38.29-42.65s18.8-42.38,38.29-42.38,38.52,14.68,38.52,41.92-18.8,43.11-38.52,43.11Z"/><circle class="cls-1" cx="478.94" cy="153.78" r="65.22"/><path class="cls-4" d="M650.32,90.62l-36.92,96.27-35.54-96.27h-29.12l49.76,124.24-10.76,33.37-.69,1.64-.5,1.18-4.07,9.74h-.02c-2.59,5.76-6.86,10.26-11.98,13.17-1.01,.55-2.05,1.08-3.09,1.53l12.69,21.95c9.29-4.54,18.7-13.73,23.6-23.15l4.37-9.92s0,0,0-.01l3.55-8.52,40.99-105.89,24.76-59.34h-27.06Z"/></svg>