<svg width="135" height="59" viewBox="0 0 135 59" fill="none" xmlns="http://www.w3.org/2000/svg">
<mask id="mask0_5241_10013" style="mask-type:luminance" maskUnits="userSpaceOnUse" x="0" y="8" width="28" height="36">
<path d="M27.9836 8H0V44H27.9836V8Z" fill="white"/>
</mask>
<g mask="url(#mask0_5241_10013)">
<path d="M6.84767 8.0034C5.7947 8.02203 4.75623 8.25217 3.79396 8.68013C3.1426 9.98429 2.93304 11.4649 3.19687 12.8986C3.46071 14.3323 4.18365 15.6413 5.25663 16.6281C6.37233 17.6567 7.76509 18.3356 9.2626 18.5808C10.7601 18.826 12.2967 18.6269 13.6822 18.008C14.2223 16.9379 14.4638 15.7419 14.3813 14.5461C14.2987 13.3502 13.8951 12.1988 13.213 11.2131C12.4979 10.1958 11.5428 9.37064 10.4325 8.81076C9.32212 8.25088 8.09082 7.97357 6.84767 8.0034ZM20.4807 12.377C19.7451 12.3563 19.0159 12.5181 18.358 12.8478C17.7003 13.1776 17.1342 13.6651 16.7108 14.2668C16.3067 14.8494 16.0677 15.5306 16.0191 16.238C15.9705 16.9454 16.1141 17.6527 16.4348 18.2852C17.2536 18.6541 18.1628 18.7742 19.0494 18.6306C19.9359 18.4871 20.7607 18.0861 21.4214 17.4776C22.0576 16.8944 22.4859 16.1193 22.641 15.2702C22.7961 14.4211 22.6695 13.5446 22.2805 12.7741C21.7135 12.5216 21.1013 12.3856 20.4807 12.377ZM8.19873 19.8822C6.04822 19.8706 3.97442 20.6805 2.40092 22.1464C1.64391 22.8416 1.03957 23.6865 0.626151 24.6276C0.212736 25.5685 -0.000732422 26.5852 -0.000732422 27.613C-0.000732422 28.6408 0.212736 29.6575 0.626151 30.5985C1.03957 31.5396 1.64391 32.3844 2.40092 33.0796L13.9929 43.9998L25.5839 33.0664C26.3406 32.3712 26.9448 31.5262 27.3582 30.5851C27.7715 29.6442 27.9849 28.6276 27.9849 27.5998C27.9849 26.572 27.7715 25.5555 27.3582 24.6145C26.9448 23.6734 26.3406 22.8285 25.5839 22.1332C24.005 20.6773 21.936 19.869 19.7883 19.869C17.6407 19.869 15.5718 20.6773 13.9929 22.1332C12.4177 20.6715 10.344 19.8664 8.19513 19.8822H8.19873Z" fill="#009499"/>
</g>
<path d="M48.093 33.7109H43.8508V30.5351H48.093C48.6711 30.5351 49.1398 30.4374 49.4992 30.2421C49.8586 30.0468 50.1204 29.7773 50.2843 29.4336C50.4562 29.082 50.5422 28.6875 50.5422 28.25C50.5422 27.7812 50.4562 27.3476 50.2843 26.9492C50.1204 26.5508 49.8586 26.2304 49.4992 25.9883C49.1398 25.7382 48.6711 25.6133 48.093 25.6133H45.3976V39.5H41.2843V22.4375H48.093C49.4602 22.4375 50.6359 22.6875 51.6204 23.1875C52.6125 23.6874 53.3742 24.375 53.9055 25.25C54.4368 26.1171 54.7024 27.1094 54.7024 28.2266C54.7024 29.3282 54.4368 30.2891 53.9055 31.1093C53.3742 31.9296 52.6125 32.5703 51.6204 33.0312C50.6359 33.4844 49.4602 33.7109 48.093 33.7109ZM67.2883 22.4375V39.5H63.1867V22.4375H67.2883ZM85.8859 33.7226H89.9875C89.9328 34.9101 89.6125 35.957 89.0266 36.8633C88.4406 37.7696 87.6282 38.4765 86.5891 38.9843C85.5579 39.4844 84.3391 39.7343 82.9329 39.7343C81.7923 39.7343 80.7727 39.5429 79.8742 39.1601C78.9837 38.7773 78.2258 38.2265 77.6008 37.5078C76.9835 36.789 76.5109 35.918 76.1829 34.8945C75.8625 33.8711 75.7024 32.7188 75.7024 31.4375V30.5117C75.7024 29.2304 75.8703 28.0781 76.2063 27.0546C76.5501 26.0234 77.0344 25.1484 77.6593 24.4296C78.2922 23.7032 79.05 23.1485 79.9329 22.7656C80.8156 22.3828 81.7962 22.1914 82.8742 22.1914C84.3586 22.1914 85.6125 22.457 86.6359 22.9883C87.6594 23.5196 88.4524 24.2499 89.0149 25.1796C89.5774 26.1015 89.9094 27.1523 90.0109 28.332H85.9093C85.8937 27.6914 85.7844 27.1562 85.5813 26.7266C85.3782 26.289 85.0578 25.961 84.6204 25.7421C84.1828 25.5234 83.6008 25.4141 82.8742 25.4141C82.3665 25.4141 81.925 25.5078 81.55 25.6953C81.175 25.8828 80.8626 26.1797 80.6125 26.5859C80.3625 26.9922 80.175 27.5195 80.05 28.1679C79.9329 28.8086 79.8742 29.582 79.8742 30.4883V31.4375C79.8742 32.3438 79.9289 33.1172 80.0383 33.7578C80.1476 34.3985 80.3235 34.9218 80.5656 35.3282C80.8078 35.7344 81.1203 36.0351 81.5031 36.2304C81.8938 36.4179 82.3704 36.5117 82.9329 36.5117C83.5578 36.5117 84.0852 36.414 84.5149 36.2187C84.9445 36.0156 85.2766 35.711 85.5109 35.3046C85.7454 34.8906 85.8703 34.3632 85.8859 33.7226ZM102.046 22.4375V39.5H97.9328V22.4375H102.046ZM112.23 22.4375L105.62 31.0859L101.753 35.3163L101.003 31.5429L103.476 27.7929L107.155 22.4375H112.23ZM107.366 39.5L102.96 31.8125L106.159 29.457L112.23 39.5H107.366ZM122.378 22.4375L125.519 29.8437L128.671 22.4375H133.101L127.616 33.3711V39.5H123.433V33.3711L117.937 22.4375H122.378Z" fill="#009499"/>
</svg>
