<?xml version="1.0" encoding="utf-8"?>
<!-- Generator: Adobe Illustrator 27.2.0, SVG Export Plug-In . SVG Version: 6.00 Build 0)  -->
<svg version="1.1" id="Layer_1" xmlns="http://www.w3.org/2000/svg" xmlns:xlink="http://www.w3.org/1999/xlink" x="0px" y="0px"
	 viewBox="0 0 197.4 83.2" style="enable-background:new 0 0 197.4 83.2;" xml:space="preserve">
<style type="text/css">
	.st0{clip-path:url(#SVGID_00000181798633276776272110000007213177139062791825_);}
	.st1{fill:#333332;}
</style>
<g>
	<defs>
		<rect id="SVGID_1_" width="197.4" height="83.2"/>
	</defs>
	<clipPath id="SVGID_00000120542190920643419470000014909409929730839722_">
		<use xlink:href="#SVGID_1_"  style="overflow:visible;"/>
	</clipPath>
	<g style="clip-path:url(#SVGID_00000120542190920643419470000014909409929730839722_);">
		<path class="st1" d="M77.5,21.3l-6.4,18.5h-3.8l-6.4-18.5h3.4l4.8,14.1L74,21.3H77.5z M79.7,19.8l2.8-0.3h0.4v20h-3.2
			C79.7,39.5,79.7,19.8,79.7,19.8z M97.4,39.8c-0.5,0-1.1-0.1-1.6-0.3s-1.1-0.6-1.6-1.2c-0.6,0.4-1.1,0.8-1.7,1.1s-1.3,0.4-2.2,0.4
			c-0.7,0-1.4-0.1-2.1-0.3s-1.4-0.7-1.8-1.3c-0.5-0.7-0.8-1.6-0.8-2.9c0-1.3,0.3-2.3,1.1-2.9c0.8-0.7,2-1.1,4-1.1
			c0.8,0,1.7,0,2.9,0.1v-0.7c0-1-0.3-1.7-0.8-2.1s-1.2-0.6-2-0.6c-0.6,0-1.3,0.1-2,0.3c-0.7,0.2-1.3,0.4-1.9,0.7l-0.8-2.8
			c1.5-0.7,3.4-1.2,5.2-1.2c1.4,0,2.8,0.3,3.8,1.1c1,0.7,1.6,1.9,1.6,3.7v5.3c0,0.7,0.2,1.2,0.6,1.5s0.9,0.5,1.5,0.7
			C98.8,37.3,97.4,39.8,97.4,39.8z M93.5,33.7c-1.5,0-2.7,0-3.5,0.2s-1.2,0.6-1.2,1.5c0,1.2,0.8,1.8,2,1.8c0.4,0,1.1-0.1,1.7-0.4
			c0.6-0.4,1.1-1,1.1-2.1L93.5,33.7L93.5,33.7z M111.5,39.8c-0.5,0-1.1-0.1-1.6-0.3s-1.1-0.6-1.6-1.2c-0.6,0.4-1.1,0.8-1.7,1.1
			s-1.3,0.4-2.2,0.4c-0.7,0-1.4-0.1-2.1-0.3s-1.4-0.7-1.8-1.3c-0.5-0.7-0.8-1.6-0.8-2.9c0-1.3,0.3-2.3,1.1-2.9c0.8-0.7,2-1.1,4-1.1
			c0.8,0,1.7,0,2.9,0.1v-0.7c0-1-0.3-1.7-0.8-2.1s-1.2-0.6-2-0.6c-0.6,0-1.3,0.1-2,0.3c-0.7,0.2-1.3,0.4-1.9,0.7l-0.8-2.8
			c1.5-0.7,3.4-1.2,5.2-1.2c1.4,0,2.8,0.3,3.7,1.1c1,0.7,1.6,1.9,1.6,3.7v5.3c0,0.7,0.2,1.2,0.6,1.5s0.9,0.5,1.5,0.7L111.5,39.8
			L111.5,39.8z M107.7,33.7c-1.5,0-2.7,0-3.5,0.2s-1.2,0.6-1.2,1.5c0,1.2,0.8,1.8,2,1.8c0.4,0,1.1-0.1,1.7-0.4
			c0.6-0.4,1.1-1,1.1-2.1L107.7,33.7L107.7,33.7z M114.9,25.2h2.7l0.3,1.1c1.3-0.9,3-1.4,4.6-1.4c1.4,0,2.7,0.4,3.6,1.2
			c1,0.8,1.6,2.1,1.6,3.9v9.5h-3.2v-8.6c0-1.1-0.4-1.8-1-2.3s-1.4-0.7-2.3-0.7c-1.1,0-2.2,0.3-3.1,0.9v10.6h-3.2V25.2z M143.3,39.5
			h-2.4l-0.6-1.1c-1.1,0.8-2.3,1.4-3.9,1.4c-2.1,0-3.6-0.8-4.6-2.1s-1.5-3-1.5-4.8c0-2.7,0.8-4.7,2.2-6.1c1.4-1.3,3.3-2,5.5-2
			c0.7,0,1.4,0,2.1,0.1v-5.3l2.7-0.3h0.5L143.3,39.5L143.3,39.5z M140.1,28.2c-0.8-0.2-1.6-0.3-2.3-0.3c-1.2,0-2.3,0.4-3,1.1
			s-1.1,1.9-1.1,3.3c0,1.1,0.3,2.2,0.9,3c0.6,0.8,1.4,1.4,2.6,1.4c1,0,2.1-0.3,2.9-0.9L140.1,28.2L140.1,28.2z M157.4,35.8v3.1
			c-0.7,0.3-1.3,0.5-2,0.7c-0.7,0.1-1.4,0.2-2,0.2c-2,0-3.8-0.6-5.2-1.9c-1.4-1.2-2.2-3.1-2.2-5.6c0-2.4,0.8-4.3,2-5.5
			c1.2-1.3,2.8-1.9,4.4-1.9c0.5,0,1.3,0.1,2.1,0.3c0.8,0.3,1.8,0.8,2.5,1.8s1.2,2.4,1.2,4.4v2.2h-8.7c0.3,1.2,0.9,2,1.6,2.4
			c0.8,0.5,1.7,0.7,2.6,0.7C154.9,36.7,156.2,36.4,157.4,35.8L157.4,35.8L157.4,35.8z M155.2,31c-0.1-1.1-0.4-1.8-0.9-2.3
			s-1.1-0.7-1.8-0.7s-1.3,0.2-1.9,0.7c-0.6,0.5-1,1.2-1.2,2.3H155.2L155.2,31z M169.1,28.7c-0.8-0.5-1.6-0.7-2.4-0.7
			c-1.1,0-2,0.4-2.9,1.1v10.5h-3.2V25.2h2.7l0.3,1.2c1-0.8,2.2-1.5,3.7-1.5c0.4,0,0.9,0,1.5,0.1c0.5,0.1,1,0.2,1.4,0.4L169.1,28.7z
			 M181.5,35.8v3.1c-0.7,0.3-1.3,0.5-2,0.7c-0.7,0.1-1.4,0.2-2,0.2c-2,0-3.8-0.6-5.2-1.9c-1.4-1.2-2.2-3.1-2.2-5.6
			c0-2.4,0.8-4.3,2-5.5c1.2-1.3,2.8-1.9,4.4-1.9c0.5,0,1.3,0.1,2.1,0.3c0.8,0.3,1.8,0.8,2.5,1.8s1.2,2.4,1.2,4.4v2.2h-8.7
			c0.3,1.2,0.9,2,1.6,2.4c0.8,0.5,1.7,0.7,2.6,0.7C179,36.7,180.3,36.4,181.5,35.8L181.5,35.8L181.5,35.8z M179.2,31
			c-0.1-1.1-0.4-1.8-0.9-2.3s-1.1-0.7-1.8-0.7s-1.3,0.2-1.9,0.7c-0.6,0.5-1,1.2-1.2,2.3H179.2L179.2,31z M184.5,25.2h2.7l0.3,1.1
			c1.3-0.9,3-1.4,4.6-1.4c1.4,0,2.7,0.4,3.6,1.2c1,0.8,1.6,2.1,1.6,3.9v9.5h-3.2v-8.6c0-1.1-0.4-1.8-1-2.3s-1.4-0.7-2.3-0.7
			c-1.1,0-2.2,0.3-3.1,0.9v10.6h-3.2L184.5,25.2L184.5,25.2z M72.6,52.2l-2.8,8.2h-1.6l-2.8-8.2h1.3L69,59l2.4-6.9h1.2
			C72.6,52.1,72.6,52.2,72.6,52.2z M79.7,56.6h-5.1c0.1,0.9,0.4,1.6,0.9,2.1s1.1,0.7,1.8,0.7s1.5-0.2,2.2-0.6v1.1
			c-0.8,0.4-1.6,0.6-2.3,0.6c-1,0-2-0.3-2.7-1s-1.1-1.8-1.1-3.3c0-1.2,0.3-2.2,0.8-2.9c0.6-0.7,1.4-1.2,2.7-1.2
			c0.8,0,1.4,0.2,1.8,0.6c0.4,0.3,0.7,0.8,0.8,1.3c0.1,0.5,0.2,1.1,0.2,1.6C79.7,55.6,79.7,56.6,79.7,56.6z M78.5,55.5
			c0-0.6-0.1-1.2-0.3-1.6c-0.2-0.4-0.6-0.7-1.3-0.7c-0.6,0-1.1,0.2-1.5,0.7c-0.4,0.4-0.6,1-0.7,1.7h3.8
			C78.5,55.6,78.5,55.5,78.5,55.5z M81.9,52.2h0.8l0.3,0.9c0.6-0.7,1.2-1.1,2-1.1c0.2,0,0.4,0,0.7,0.1c0.2,0,0.5,0.1,0.7,0.2
			L86,53.4c-0.3-0.1-0.8-0.3-1.1-0.3c-0.7,0-1.3,0.5-1.7,1.1v6.1H82L81.9,52.2L81.9,52.2z M87.9,49.1L89,49h0.1v3.8
			c0.6-0.4,1.2-0.7,2.1-0.7c1.1,0,1.9,0.5,2.6,1.2c0.6,0.8,1,1.8,1,3s-0.3,2.2-1,3C93,60,92,60.5,90.6,60.5c-1,0-2-0.3-2.7-0.6
			C87.9,59.9,87.9,49.1,87.9,49.1z M89.1,59.1c0.5,0.2,1.1,0.3,1.6,0.3c0.8,0,1.5-0.3,2-0.9c0.5-0.6,0.8-1.4,0.8-2.4
			c0-0.8-0.2-1.5-0.6-2.1c-0.4-0.5-1-0.9-1.9-0.9c-0.8,0-1.5,0.3-1.9,0.9C89.1,54,89.1,59.1,89.1,59.1z M102.3,56.6h-5.1
			c0.1,0.9,0.4,1.6,0.9,2.1s1.1,0.7,1.8,0.7s1.5-0.2,2.2-0.6v1.1c-0.8,0.4-1.6,0.6-2.3,0.6c-1,0-2-0.3-2.7-1S96,57.7,96,56.2
			c0-1.2,0.3-2.2,0.8-2.9c0.6-0.7,1.4-1.2,2.7-1.2c0.8,0,1.4,0.2,1.8,0.6c0.4,0.3,0.7,0.8,0.8,1.3c0.1,0.5,0.2,1.1,0.2,1.6
			C102.3,55.6,102.3,56.6,102.3,56.6z M101.1,55.5c0-0.6-0.1-1.2-0.3-1.6c-0.2-0.4-0.6-0.7-1.3-0.7c-0.6,0-1.1,0.2-1.5,0.7
			c-0.4,0.4-0.6,1-0.7,1.7h3.8C101.1,55.6,101.1,55.5,101.1,55.5z M109.7,56.6h-5.1c0.1,0.9,0.4,1.6,0.9,2.1s1.1,0.7,1.8,0.7
			s1.5-0.2,2.2-0.6v1.1c-0.8,0.4-1.6,0.6-2.3,0.6c-1,0-2-0.3-2.7-1s-1.1-1.8-1.1-3.3c0-1.2,0.3-2.2,0.8-2.9c0.6-0.7,1.4-1.2,2.7-1.2
			c0.8,0,1.4,0.2,1.8,0.6c0.4,0.3,0.7,0.8,0.8,1.3c0.1,0.5,0.2,1.1,0.2,1.6C109.7,55.6,109.7,56.6,109.7,56.6z M108.5,55.5
			c0-0.6-0.1-1.2-0.3-1.6c-0.2-0.4-0.6-0.7-1.3-0.7c-0.6,0-1.1,0.2-1.5,0.7c-0.4,0.4-0.6,1-0.7,1.7h3.8
			C108.5,55.6,108.5,55.5,108.5,55.5z M111.5,49.1l1.1-0.2h0.1v11.4h-1.2C111.5,60.3,111.5,49.1,111.5,49.1z M121.4,60.3h-0.8
			l-0.3-0.7c-0.6,0.5-1.4,0.9-2.3,0.9c-1.1,0-1.9-0.5-2.6-1.3c-0.6-0.8-1-1.9-1-3.1c0-1.2,0.3-2.2,1-2.9s1.7-1.2,3.1-1.2
			c0.5,0,1,0.1,1.5,0.2v-3.1l1.1-0.2h0.1v11.4L121.4,60.3L121.4,60.3z M120.2,53.5c-0.5-0.2-1.1-0.3-1.6-0.3c-0.8,0-1.5,0.3-2,0.8
			s-0.8,1.3-0.8,2.3c0,0.8,0.2,1.6,0.6,2.2c0.4,0.6,1,1,1.9,1c0.8,0,1.5-0.3,1.9-0.9V53.5z M123.9,50c0-0.2,0.1-0.4,0.3-0.6
			c0.1-0.1,0.4-0.2,0.6-0.2s0.4,0.1,0.6,0.2c0.2,0.2,0.3,0.4,0.3,0.6c0,0.2-0.1,0.4-0.3,0.6c-0.2,0.2-0.4,0.3-0.6,0.3
			s-0.4-0.1-0.6-0.3S123.9,50.2,123.9,50z M124.1,52.2h1.2v8.2h-1.2V52.2z M128.1,52.2h0.8l0.2,0.8c0.3-0.2,0.7-0.4,1.2-0.6
			c0.4-0.2,0.9-0.3,1.3-0.3c0.8,0,1.5,0.2,2,0.7s0.9,1.3,0.9,2.4v5.2h-1.2v-5.1c0-0.8-0.2-1.3-0.5-1.6s-0.8-0.4-1.3-0.4
			c-0.4,0-0.8,0.1-1.1,0.3c-0.4,0.1-0.7,0.3-1,0.5v6.4h-1.2v-8.3C128.2,52.2,128.1,52.2,128.1,52.2z M140.1,58.6
			c1.1,0,1.9,0.3,2.5,0.7c0.5,0.4,0.8,1,0.8,1.6c0,0.9-0.5,1.7-1.3,2.2c-0.8,0.6-1.8,0.9-2.9,0.9c-0.9,0-1.7-0.3-2.2-0.8
			s-0.8-1.1-0.8-1.8s0.4-1.4,1-2.1c-0.2-0.1-0.4-0.3-0.5-0.6c-0.1-0.2-0.2-0.5-0.2-0.7c0-0.4,0.2-0.9,0.6-1.4
			c-0.2-0.2-0.4-0.5-0.5-0.9c-0.1-0.3-0.2-0.7-0.2-1.1c0-0.8,0.3-1.5,0.8-1.9c0.5-0.5,1.3-0.8,2.2-0.8c0.6,0,1.1,0.1,1.6,0.4
			c0.3-0.3,0.7-0.5,1.1-0.6c0.4-0.1,0.7-0.2,1-0.2l0.4,1c-0.4,0.1-1,0.3-1.5,0.6c0.3,0.4,0.5,1,0.5,1.5c0,0.8-0.3,1.5-0.8,2
			s-1.3,0.9-2.2,0.9c-0.6,0-1.1-0.1-1.5-0.4c-0.2,0.2-0.3,0.5-0.3,0.7c0,0.4,0.4,0.7,1,0.7L140.1,58.6L140.1,58.6L140.1,58.6z
			 M138.1,59.7c-0.4,0.5-0.7,1.1-0.7,1.7c0,0.5,0.1,0.9,0.4,1.2c0.3,0.3,0.8,0.5,1.5,0.5c0.8,0,1.5-0.3,2-0.7s0.8-0.9,0.8-1.4
			c0-0.6-0.4-0.9-0.9-1.1c-0.6-0.2-1.4-0.2-2.2-0.2H138.1L138.1,59.7z M139.4,53.1c-0.6,0-1.1,0.2-1.4,0.5c-0.3,0.3-0.5,0.7-0.5,1.2
			c0,0.4,0.2,0.8,0.5,1.2c0.3,0.3,0.8,0.5,1.4,0.5c0.6,0,1.1-0.2,1.4-0.5c0.3-0.3,0.5-0.7,0.5-1.1c0-0.4-0.2-0.8-0.5-1.2
			S140,53.1,139.4,53.1z M160.5,52.2l-2.6,8.2h-1.5l-1.8-6.2l-1.8,6.2h-1.5l-2.6-8.2h1.2l2.2,6.8l2-6.8h1.1l2,6.8l2.2-6.8H160.5
			L160.5,52.2z M167.7,56.6h-5.1c0.1,0.9,0.4,1.6,0.9,2.1s1.1,0.7,1.8,0.7s1.5-0.2,2.2-0.6v1.1c-0.8,0.4-1.6,0.6-2.3,0.6
			c-1,0-2-0.3-2.7-1s-1.1-1.8-1.1-3.3c0-1.2,0.3-2.2,0.8-2.9c0.6-0.7,1.4-1.2,2.7-1.2c0.8,0,1.4,0.2,1.8,0.6
			c0.4,0.3,0.7,0.8,0.8,1.3s0.2,1.1,0.2,1.6L167.7,56.6L167.7,56.6z M166.5,55.5c0-0.6-0.1-1.2-0.3-1.6c-0.2-0.4-0.6-0.7-1.3-0.7
			c-0.6,0-1.1,0.2-1.5,0.7c-0.4,0.4-0.6,1-0.7,1.7h3.8C166.5,55.6,166.5,55.5,166.5,55.5z M169.9,52.2h0.8l0.3,0.9
			c0.6-0.7,1.2-1.1,2-1.1c0.2,0,0.4,0,0.7,0.1c0.2,0,0.5,0.1,0.7,0.2l-0.4,1.1c-0.3-0.1-0.8-0.3-1.1-0.3c-0.7,0-1.3,0.5-1.7,1.1v6.1
			H170L169.9,52.2L169.9,52.2L169.9,52.2z M181.5,60.5c-0.4,0-0.9-0.3-1.4-0.7s-1-0.9-1.4-1.4s-0.9-1-1.1-1.4
			c-0.1-0.2-0.3-0.4-0.4-0.5c-0.1-0.1-0.1-0.2-0.2-0.3v4.1h-1.2V49.2L177,49h0.1v7l3.2-3.9h1.6l-3.3,3.9c0,0.2,0.3,0.6,0.7,1
			s0.9,1,1.4,1.4s1,0.8,1.4,0.9C182.1,59.3,181.5,60.5,181.5,60.5z M182.6,52.2h0.9v-1.5l1.1-0.2h0.1v1.7h2.3v1.1h-2.3v4
			c0,0.7,0.2,1.2,0.4,1.6c0.3,0.3,0.6,0.5,1,0.5c0.5,0,1-0.2,1.5-0.5L188,60c-0.7,0.3-1.4,0.5-2,0.5c-0.7,0-1.3-0.2-1.8-0.7
			s-0.7-1.3-0.7-2.4v-4h-0.9C182.6,53.4,182.6,52.2,182.6,52.2z M36.7,0.1L37.1,0l28.2,83l-0.4,0.1L36.7,0.1z M36.9,41.4
			c-2-1.6-3,0-4.3-0.1c-1.1-0.1-2.1-1.8-2.9-1.4c-1.6,0.8,0.6,3.7,1.6,4.3c0.9,0.5,2,1,2.2,1.1c1.3,0.6,1.8,1.5,2,2.9
			c0,0.3,0,1.1-0.1,1.4c-0.6,2.5-5,4.8-7.5,3c-1.2-0.8-2.3-1.9-2.6-3.7c-0.7-3.3-3-5.7-3.8-8.9c-0.5-1.9-0.8-4-1.3-6s-1-4-1.5-5.9
			c-0.4-1.7-1.2-4.3-1.8-5.8c-2.4-6.3-3.5-5.8-3.5-5.8s0.9,1.7,4,17.1c0.1,0.6,1.3,7.4,2.1,9.6c0.3,0.8,0.8,2.5,1.2,3.2
			c1,2.2,3.7,5.5,3.8,8.5c0.1,1.7,0.3,3.2,0.3,4.5c0,0.4,0.2,1.9,0.4,2.6c0.7,1.8,5.9,7.7,11.5,7.7v-4.5c-5.5,0-10.8-3.1-10.9-3.4
			c-0.1-0.1,0.3-2.3,0.7-3.2c0.7-1.8,2.1-3.5,4.5-3.7c2.7-0.2,4.3,0.6,5.7,0.6C36.7,55.5,36.9,41.4,36.9,41.4z M12.8,25.2
			c-0.2,3.4-5.4,7.9-7,10.9C5,37.5,4,40,3.8,41.4c-0.7,4,0.2,6.5,1.2,8.8c1.7,4.1-0.3,5.7,1,4.8c1.7-1.4,1.4-4.5,1.3-6.5
			c-0.1-1.6-0.2-3.4,0-5.3c0.5-3.6,2.6-7.4,4.5-10.1C14,30,13.2,26.6,12.8,25.2z M13.9,34.7c0,0,0.6,2.7-1.8,9.5
			C5.9,62,17.6,63.7,21,67.9c0,0,1.3-1.8-4-7.6c-1.9-2.1-3.7-6.8-2.2-13.5C17,37.1,13.9,34.7,13.9,34.7z M2.3,23
			C2,21.9,1.9,21,2,20.1c0.3-4.2,4.1-5.9,5-6.5c0,0,1.7-1.2,1.9-2.4c0,0,1.8,4.4-2.3,6.9C4.6,19.5,3.3,21,2.3,23z M11.9,18.9
			c0.2,0.4,1.8,2.7-4.7,8.1c-6.5,5.3-4.4,9.1-4.4,9.1s-6.9-3.8,1-10.5c7.9-6.6,6.3-8,6.3-8S11.3,17.7,11.9,18.9z M20.3,21
			c1.1,0.1,1.8,3.6,4.4,4.4c1.9,0.6,3.9,0.3,4.4,1.4c-0.9,0.5-0.2,2,0.7,1.7C30.5,26.5,30.8,18.6,20.3,21z M23.8,22.5
			c0.1-0.2,0.2,0,0.5-0.2c0.3-0.3,0.6-0.8,1.1-0.9c0.4-0.1,0.8-0.1,1.2,0.1c0.2,0.1,0.1,0.6-0.1,0.8c-0.3,0.3-1.4-0.2-1.4,0.6
			c0,1.3,1.7,0,2.6,0C28.1,25.9,23,25.1,23.8,22.5z"/>
	</g>
</g>
</svg>
