<svg height="66" viewBox="0 0 184 66" width="184" xmlns="http://www.w3.org/2000/svg"><g fill="none" fill-rule="evenodd"><path d="m.8809.7493h9.361l26.417 34.633 26.417-34.633h9.361v64.688h-8.591v-53.044l-27.187 35.827-27.187-35.827v53.044h-8.591z" fill="#e95769"/><path d="m60.4048 23.0852-7.069 9.134-16.679 21.251-16.637-21.177-7.117-9.269v12.569l1.087 1.417 22.684 28.764 22.688-28.835 1.043-1.347z" fill="#e95769"/><g fill="#fffffe"><path d="m88.0352 22.9114h3.86l4.4 7.504 4.373-7.504h3.86v17.545h-3.617v-11.149l-4.616 8.18-4.643-8.18v11.149h-3.617z"/><path d="m114.1436 32.5471h3.293l-1.647-4.534zm-.189-9.636h3.698l6.37 17.545h-3.698l-1.647-4.535h-5.749l-1.646 4.535h-3.699z"/><path d="m133.5557 28.1751 3.509-5.264h4.157l-5.588 8.368 6.128 9.177h-4.157l-4.049-6.046-4.021 6.046h-4.158l6.101-9.177-5.561-8.368h4.157z"/><path d="m88.0352 47.9114h3.86l4.4 7.504 4.373-7.504h3.86v17.545h-3.617v-11.149l-4.616 8.18-4.643-8.18v11.149h-3.617z"/><path d="m119.8926 56.1165c0-3.994-1.484-5.264-3.725-5.264-2.24 0-3.725 1.27-3.725 5.264v1.134c0 3.995 1.485 5.263 3.725 5.263 2.241 0 3.725-1.268 3.725-5.263zm-11.094 0c0-6.208 3.104-8.638 7.369-8.638s7.37 2.43 7.37 8.638v1.134c0 6.209-3.105 8.637-7.37 8.637s-7.369-2.428-7.369-8.637z"/><path d="m131.4229 58.0335v4.049h3.779c2.375 0 3.158-.783 3.158-2.025 0-1.133-.783-2.024-3.158-2.024zm0-6.748v3.644h3.509c2.16 0 2.888-.864 2.888-1.809 0-1.107-.728-1.835-2.888-1.835zm3.509-3.374c4.67 0 6.506 2.132 6.506 4.939 0 1.404-.621 2.672-2.052 3.509 1.808.891 2.592 2.321 2.592 3.968 0 2.996-1.917 5.129-6.776 5.129h-7.396v-17.545z"/><path d="m146.489 65.456h3.617v-17.545h-3.617z"/><path d="m158.4766 62.0823h9.475v3.374h-13.092v-17.545h13.092v3.374h-9.475v3.239h8.395v3.374h-8.395z"/><path d="m171.7344 47.9114h3.617v14.171h7.856v3.374h-11.473z"/></g></g></svg>