<svg id="Layer_1" data-name="Layer 1"  aria-hidden="true"
     role="img"
     fill="#fff"
     focusable="false" xmlns="http://www.w3.org/2000/svg" viewBox="0 0 3134.92 1391.51"><path d="M1163.36,1721q-14.19-44.3-30.48-91t-32.51-93H768.56q-16.08,46.49-32.25,93.2T706.2,1721H507.6q48-137.32,91-253.78t84.23-219.44q41.21-103,81.16-195.54t83-180.82h181.28q41.87,88.27,82.53,180.82t81.9,195.54q41.25,103,84.36,219.44T1368.2,1721ZM933.61,1063.89q-6.4,18.52-18.74,50.36t-28,73.62q-15.77,41.75-35.21,91.93t-39.54,105.28H1055q-19.52-55.24-37.77-105.59t-34.73-92.12q-16.46-41.76-28.86-73.58T933.61,1063.89Z" transform="translate(-507.6 -851.81)"/><path d="M2014.73,1738.17q-207.2,0-315.68-115.26T1590.57,1295.6q0-105.43,33.09-188.19t90.72-139.76q57.61-57,137.31-86.43t172.85-29.41q53.92,0,98.07,8t77.24,18.39q33.09,10.43,55.17,21.45t31.87,17.17l-55.17,154.47q-39.24-20.84-91.32-35.56T2022.09,1021a261.76,261.76,0,0,0-86.43,14.71,195.75,195.75,0,0,0-74.78,47.21q-32.51,32.49-52.1,84t-19.61,125.05q0,58.83,12.87,109.72t41.68,87.64q28.79,36.79,75.39,58.23T2031.89,1569q41.65,0,74.79-4.93a542,542,0,0,0,58.85-11.63,305.54,305.54,0,0,0,45.35-15.32q19.6-8.58,35.55-15.93l52.72,153.24q-40.46,24.51-114,44.13T2014.73,1738.17Z" transform="translate(-507.6 -851.81)"/><path d="M3642.52,1678.08q0,24.14-15.18,40.86t-42.42,16.76q-27.27,0-42.42-16.76t-15.2-40.86q0-24.06,15.2-40.84t42.42-16.78q27.21,0,42.42,16.78T3642.52,1678.08Z" transform="translate(-507.6 -851.81)"/><path d="M2502.31,1678.08q0,24.14-15.19,40.86t-42.41,16.76q-27.27,0-42.42-16.76t-15.2-40.86q0-24.06,15.2-40.84t42.42-16.78q27.21,0,42.41,16.78T2502.31,1678.08Z" transform="translate(-507.6 -851.81)"/><path d="M1575.53,1678.08q0,24.14-15.19,40.86t-42.42,16.76q-27.26,0-42.42-16.76t-15.2-40.86q0-24.06,15.2-40.84t42.42-16.78q27.22,0,42.42,16.78T1575.53,1678.08Z" transform="translate(-507.6 -851.81)"/><path d="M3243.86,1721q-14.21-44.3-30.49-91t-32.53-93H2849.05q-16.11,46.49-32.26,93.2t-30.1,90.7h-198.6q47.94-137.32,91-253.78t84.22-219.44q41.22-103,81.16-195.54t83-180.82h181.29q41.85,88.27,82.51,180.82t81.9,195.54q41.29,103,84.37,219.44T3448.68,1721Zm-229.78-657.11q-6.39,18.52-18.73,50.36t-28,73.62q-15.75,41.75-35.21,91.93t-39.53,105.28h242.93q-19.5-55.24-37.78-105.59T3063,1187.37q-16.48-41.76-28.86-73.58T3014.08,1063.89Z" transform="translate(-507.6 -851.81)"/><path d="M1527.78,2153.75a96.1,96.1,0,0,1-39.22-37.07q-13.93-23.79-13.93-55.07v-96q0-31.27,13.93-55.29a94.45,94.45,0,0,1,39.22-37.07q25.28-13.07,58.28-13.07,32.57,0,57.64,12.86t39,34.93a90.1,90.1,0,0,1,13.92,49.07v3a5.12,5.12,0,0,1-5.14,5.14h-50.14a5.14,5.14,0,0,1-5.15-5.14v-1.29q0-19.71-13.71-33.21t-36.43-13.5q-23.14,0-37.07,14.36t-13.93,37.5v99.42q0,23.14,15,37.5t38.14,14.36q22.29,0,35.58-11.78t13.28-32.79v-19.29a1.89,1.89,0,0,0-2.14-2.14h-48a5.12,5.12,0,0,1-5.14-5.14v-39.43a5.12,5.12,0,0,1,5.14-5.14h104.57a5.12,5.12,0,0,1,5.14,5.14v56.57q0,32.58-13.71,56.57a90.65,90.65,0,0,1-38.79,36.65q-25.07,12.64-58.07,12.64T1527.78,2153.75Z" transform="translate(-507.6 -851.81)"/><path d="M1899.35,1946.32q3.42,1.73,2.57,6.43l-9,48.86q-.43,5.15-6,3a47.49,47.49,0,0,0-15-2.14,70.84,70.84,0,0,0-9.43.85,42.13,42.13,0,0,0-26.14,11.36q-10.72,10.08-10.72,26.79v117a5.12,5.12,0,0,1-5.14,5.14h-50.14a5.1,5.1,0,0,1-5.14-5.14v-210a5.1,5.1,0,0,1,5.14-5.15h50.14a5.12,5.12,0,0,1,5.14,5.15v16.28a1.73,1.73,0,0,0,.86,1.72.86.86,0,0,0,1.29-.43q17.57-25.72,47.14-25.72Q1890.36,1940.32,1899.35,1946.32Z" transform="translate(-507.6 -851.81)"/><path d="M1985.49,2148.18q-25.71-18.85-35.14-51.43a152.43,152.43,0,0,1-6-43.71q0-25.29,6-45.43,9.86-31.71,35.57-49.71t61.72-18q35.13,0,60,17.78t35.14,49.5a146.83,146.83,0,0,1,6.86,45,151,151,0,0,1-6,43.29q-9.43,33.42-34.93,52.5t-61.5,19.07Q2011.21,2167,1985.49,2148.18Zm85.72-41.57q9.86-8.57,14.14-23.57a123.32,123.32,0,0,0,3.43-30q0-18-3.43-30.43-4.72-14.56-14.57-22.71t-24-8.15q-14.58,0-24.21,8.15t-13.93,22.71q-3.44,10.29-3.43,30.43,0,19.27,3,30,4.27,15,14.36,23.57t24.64,8.57Q2061.35,2115.18,2071.21,2106.61Z" transform="translate(-507.6 -851.81)"/><path d="M2344.85,1944.82a5,5,0,0,1,3.64-1.5h50.15a5.12,5.12,0,0,1,5.14,5.15v210a5.12,5.12,0,0,1-5.14,5.14h-50.15a5.12,5.12,0,0,1-5.14-5.14V2143.9c0-.86-.29-1.36-.86-1.5s-1.14.21-1.71,1.07q-17.15,23.15-53.15,23.14-32.57,0-53.57-19.71t-21-55.29V1948.47a5.12,5.12,0,0,1,5.15-5.15h49.71a5.12,5.12,0,0,1,5.14,5.15v128.14q0,17.14,9.22,27.86t25.5,10.71q14.56,0,24-8.78t11.57-22.93v-135A5,5,0,0,1,2344.85,1944.82Z" transform="translate(-507.6 -851.81)"/><path d="M2678.92,2053.9q0,29.57-8.14,53.57-9.87,27.42-31.07,43.5t-52.5,16.07q-30.87,0-48-21.43c-.58-.86-1.15-1.14-1.72-.86a1.74,1.74,0,0,0-.86,1.72v91.71a5.1,5.1,0,0,1-5.14,5.14h-50.14a5.09,5.09,0,0,1-5.14-5.14V1948.47a5.1,5.1,0,0,1,5.14-5.15h50.14a5.12,5.12,0,0,1,5.14,5.15v14.14c0,.86.29,1.36.86,1.5a1.78,1.78,0,0,0,1.72-.64q18-23.57,49.71-23.57,29.58,0,51.22,16.49t31.07,46.08Q2678.92,2024.32,2678.92,2053.9Zm-62.57-.86q0-27-9-42.86-9.87-18.42-31.72-18.43-19.71,0-29.57,18.43-9,15.43-9,43.29,0,28.71,9.43,44.57,9.86,17.14,29.14,17.14t30-16.71Q2616.34,2081.75,2616.35,2053Z" transform="translate(-507.6 -851.81)"/></svg>