<?xml version="1.0" encoding="UTF-8"?>
<svg id="Layer_1" data-name="Layer 1" xmlns="http://www.w3.org/2000/svg" viewBox="0 0 2823.52 1253.28">
  <g>
    <path d="m590.62,782.84c-8.52-26.6-17.66-53.89-27.46-81.92-9.79-28.03-19.56-55.93-29.27-83.72H235.04c-9.66,27.92-19.36,55.87-29.05,83.94-9.72,28.05-18.76,55.29-27.12,81.69H0c28.79-82.45,56.1-158.63,81.95-228.57,25.84-69.91,51.11-135.8,75.86-197.64,24.74-61.83,49.09-120.53,73.09-176.12,24-55.57,48.92-109.86,74.77-162.86h163.27c25.14,53.01,49.91,107.29,74.33,162.86,24.38,55.58,48.98,114.28,73.77,176.12,24.77,61.83,50.1,127.72,75.98,197.64,25.88,69.94,53.24,146.12,82.09,228.57h-184.49ZM383.7,191.01c-3.85,11.12-9.48,26.24-16.88,45.36-7.4,19.13-15.82,41.22-25.27,66.3-9.46,25.06-20.04,52.66-31.71,82.8-11.68,30.14-23.55,61.75-35.61,94.82h218.81c-11.71-33.17-23.05-64.89-34.01-95.11-10.98-30.22-21.42-57.89-31.28-82.97-9.88-25.07-18.55-47.14-26-66.27-7.45-19.1-13.48-34.07-18.04-44.94Z"/>
    <path d="m1357.42,798.31c-124.41,0-219.17-34.6-284.32-103.81-65.14-69.18-97.71-167.44-97.71-294.8,0-63.31,9.94-119.81,29.8-169.49,19.88-49.69,47.1-91.65,81.71-125.88,34.59-34.23,75.81-60.17,123.67-77.84,47.83-17.66,99.73-26.49,155.68-26.49,32.38,0,61.84,2.4,88.33,7.16,26.51,4.81,49.69,10.32,69.57,16.57,19.87,6.26,36.43,12.7,49.69,19.32,13.24,6.63,22.79,11.79,28.7,15.47l-49.69,139.12c-23.56-12.51-50.98-23.17-82.25-32.02-31.3-8.82-66.8-13.25-106.56-13.25-26.51,0-52.45,4.43-77.84,13.25-25.4,8.85-47.86,23.02-67.36,42.52-19.52,19.51-35.16,44.71-46.92,75.63-11.79,30.92-17.66,68.47-17.66,112.63,0,35.32,3.86,68.28,11.59,98.82,7.74,30.55,20.24,56.85,37.54,78.94,17.28,22.09,39.92,39.58,67.9,52.44,27.96,12.9,61.83,19.34,101.57,19.34,25.02,0,47.5-1.47,67.36-4.44,19.88-2.92,37.55-6.42,53-10.48,15.46-4.02,29.06-8.64,40.85-13.8,11.77-5.15,22.45-9.93,32.02-14.34l47.48,138.01c-24.29,14.72-58.52,27.98-102.68,39.75-44.16,11.77-95.34,17.68-153.48,17.68Z"/>
    <path d="m2823.52,744.19c0,14.48-4.57,26.75-13.68,36.8-9.12,10.06-21.86,15.09-38.21,15.09s-29.1-5.03-38.21-15.09c-9.14-10.05-13.69-22.32-13.69-36.8s4.55-26.73,13.69-36.79c9.1-10.05,21.84-15.11,38.21-15.11s29.08,5.06,38.21,15.11c9.11,10.07,13.68,22.34,13.68,36.79Z"/>
    <path d="m1796.57,744.19c0,14.48-4.57,26.75-13.68,36.8-9.12,10.06-21.86,15.09-38.21,15.09s-29.1-5.03-38.21-15.09c-9.14-10.05-13.69-22.32-13.69-36.8s4.55-26.73,13.69-36.79c9.1-10.05,21.84-15.11,38.21-15.11s29.08,5.06,38.21,15.11c9.11,10.07,13.68,22.34,13.68,36.79Z"/>
    <path d="m961.85,744.19c0,14.48-4.57,26.75-13.68,36.8-9.12,10.06-21.86,15.09-38.21,15.09s-29.1-5.03-38.21-15.09c-9.14-10.05-13.69-22.32-13.69-36.8s4.55-26.73,13.69-36.79c9.1-10.05,21.84-15.11,38.21-15.11s29.08,5.06,38.21,15.11c9.11,10.07,13.68,22.34,13.68,36.79Z"/>
    <path d="m2464.45,782.84c-8.52-26.6-17.67-53.89-27.46-81.92-9.82-28.03-19.57-55.93-29.29-83.72h-298.84c-9.67,27.92-19.36,55.87-29.05,83.94-9.71,28.05-18.75,55.29-27.11,81.69h-178.87c28.79-82.45,56.11-158.63,81.94-228.57,25.84-69.91,51.12-135.8,75.85-197.64,24.75-61.83,49.11-120.53,73.11-176.12,23.99-55.57,48.92-109.86,74.77-162.86h163.28c25.13,53.01,49.9,107.29,74.32,162.86,24.38,55.58,49,114.28,73.76,176.12,24.79,61.83,50.11,127.72,75.99,197.64,25.87,69.94,53.23,146.12,82.08,228.57h-184.48Zm-206.95-591.84c-3.84,11.12-9.46,26.24-16.87,45.36-7.4,19.13-15.82,41.22-25.27,66.3-9.45,25.06-20.03,52.66-31.71,82.8-11.69,30.14-23.55,61.75-35.61,94.82h218.8c-11.71-33.17-23.05-64.89-34.03-95.11-10.97-30.22-21.41-57.89-31.26-82.97-9.9-25.07-18.56-47.14-26-66.27-7.46-19.1-13.48-34.07-18.06-44.94Z"/>
  </g>
  <g>
    <path d="m918.84,1172.61c-15.19-7.97-26.96-19.11-35.32-33.39-8.36-14.28-12.55-30.82-12.55-49.6v-86.46c0-18.78,4.18-35.38,12.55-49.79,8.36-14.41,20.13-25.54,35.32-33.39,15.18-7.85,32.68-11.77,52.5-11.77s36.86,3.86,51.92,11.58c15.05,7.72,26.76,18.21,35.13,31.46,8.36,13.26,12.55,27.99,12.55,44.2v2.7c0,1.29-.45,2.38-1.35,3.28-.9.9-2,1.35-3.28,1.35h-45.16c-1.29,0-2.38-.45-3.28-1.35-.9-.9-1.35-1.99-1.35-3.28v-1.16c0-11.83-4.12-21.81-12.35-29.91-8.24-8.11-19.17-12.16-32.81-12.16s-25.03,4.31-33.39,12.93c-8.37,8.62-12.55,19.88-12.55,33.78v89.55c0,13.9,4.5,25.16,13.51,33.78,9,8.62,20.46,12.93,34.35,12.93s24.06-3.53,32.04-10.62c7.97-7.07,11.97-16.92,11.97-29.53v-17.37c0-1.28-.65-1.93-1.93-1.93h-43.23c-1.29,0-2.38-.45-3.28-1.35-.9-.9-1.35-1.99-1.35-3.28v-35.51c0-1.28.45-2.38,1.35-3.28.9-.9,1.99-1.35,3.28-1.35h94.18c1.28,0,2.38.45,3.28,1.35.9.9,1.35,2,1.35,3.28v50.95c0,19.56-4.12,36.54-12.35,50.95-8.24,14.42-19.88,25.42-34.93,33-15.05,7.59-32.49,11.39-52.3,11.39s-37.32-3.99-52.5-11.97Z"/>
    <path d="m1253.5,985.79c2.06,1.03,2.83,2.96,2.32,5.79l-8.11,44c-.26,3.09-2.06,3.99-5.4,2.7-3.86-1.28-8.36-1.93-13.51-1.93-2.06,0-4.89.26-8.49.77-9.26.77-17.12,4.18-23.55,10.23-6.43,6.05-9.65,14.09-9.65,24.13v105.38c0,1.29-.45,2.38-1.35,3.28-.9.9-2,1.35-3.28,1.35h-45.16c-1.29,0-2.38-.45-3.28-1.35-.9-.9-1.35-1.99-1.35-3.28v-189.14c0-1.28.45-2.38,1.35-3.28s1.99-1.35,3.28-1.35h45.16c1.28,0,2.38.45,3.28,1.35.9.9,1.35,2,1.35,3.28v14.67c0,.77.25,1.29.77,1.54.51.26.9.13,1.16-.39,10.55-15.44,24.7-23.16,42.46-23.16,9.26,0,16.6,1.8,22,5.4Z"/>
    <path d="m1331.09,1167.59c-15.44-11.32-25.99-26.76-31.65-46.32-3.61-12.09-5.4-25.22-5.4-39.37,0-15.18,1.8-28.82,5.4-40.92,5.92-19.04,16.6-33.97,32.04-44.78,15.44-10.81,33.97-16.21,55.58-16.21s39.11,5.34,54.04,16.02c14.92,10.68,25.48,25.54,31.65,44.58,4.11,12.87,6.18,26.38,6.18,40.53s-1.8,26.89-5.4,38.98c-5.66,20.07-16.15,35.84-31.46,47.29-15.31,11.45-33.78,17.18-55.39,17.18s-40.14-5.66-55.58-16.98Zm77.2-37.44c5.92-5.14,10.16-12.22,12.74-21.23,2.06-8.23,3.09-17.24,3.09-27.02,0-10.81-1.03-19.94-3.09-27.41-2.83-8.75-7.21-15.57-13.12-20.46-5.92-4.88-13.12-7.33-21.62-7.33s-16.02,2.45-21.81,7.33c-5.79,4.89-9.98,11.71-12.55,20.46-2.06,6.18-3.09,15.31-3.09,27.41s.9,20.59,2.7,27.02c2.57,9.01,6.88,16.09,12.93,21.23,6.04,5.15,13.44,7.72,22.19,7.72s15.69-2.57,21.62-7.72Z"/>
    <path d="m1654.75,984.44c.9-.9,1.99-1.35,3.28-1.35h45.16c1.28,0,2.38.45,3.28,1.35.9.9,1.35,2,1.35,3.28v189.14c0,1.29-.45,2.38-1.35,3.28-.9.9-2,1.35-3.28,1.35h-45.16c-1.29,0-2.38-.45-3.28-1.35-.9-.9-1.35-1.99-1.35-3.28v-13.12c0-.77-.26-1.22-.77-1.35-.52-.13-1.03.19-1.54.97-10.3,13.9-26.25,20.84-47.87,20.84-19.56,0-35.64-5.92-48.25-17.76-12.61-11.83-18.91-28.43-18.91-49.79v-128.92c0-1.28.45-2.38,1.35-3.28.9-.9,1.99-1.35,3.28-1.35h44.78c1.28,0,2.38.45,3.28,1.35.9.9,1.35,2,1.35,3.28v115.41c0,10.3,2.76,18.66,8.3,25.09,5.53,6.44,13.19,9.65,22.97,9.65,8.75,0,15.95-2.64,21.62-7.91,5.66-5.27,9.13-12.16,10.42-20.65v-121.59c0-1.28.45-2.38,1.35-3.28Z"/>
    <path d="m1955.63,1082.67c0,17.76-2.45,33.84-7.33,48.25-5.92,16.47-15.25,29.53-27.98,39.18-12.74,9.65-28.5,14.48-47.28,14.48s-32.94-6.43-43.23-19.3c-.52-.77-1.03-1.03-1.54-.77-.52.26-.77.77-.77,1.54v82.6c0,1.28-.45,2.38-1.35,3.28-.9.9-2,1.35-3.28,1.35h-45.16c-1.29,0-2.38-.45-3.28-1.35-.9-.9-1.35-2-1.35-3.28v-260.94c0-1.28.45-2.38,1.35-3.28.9-.9,1.99-1.35,3.28-1.35h45.16c1.29,0,2.38.45,3.28,1.35.9.9,1.35,2,1.35,3.28v12.74c0,.77.25,1.22.77,1.35.51.13,1.03-.06,1.54-.58,10.81-14.15,25.73-21.23,44.78-21.23,17.76,0,33.13,4.96,46.13,14.86,12.99,9.91,22.32,23.74,27.98,41.5,4.63,13.12,6.95,28.56,6.95,46.32Zm-56.36-.77c0-16.21-2.7-29.08-8.11-38.6-5.92-11.06-15.44-16.6-28.56-16.6-11.84,0-20.72,5.54-26.63,16.6-5.4,9.26-8.11,22.26-8.11,38.99s2.83,30.63,8.49,40.14c5.92,10.3,14.67,15.44,26.25,15.44s20.58-5.02,27.02-15.05c6.43-10.04,9.65-23.67,9.65-40.92Z"/>
  </g>
</svg>