<svg width="140" height="27" viewBox="0 0 140 27" fill="none" xmlns="http://www.w3.org/2000/svg">
<path fill-rule="evenodd" clip-rule="evenodd" d="M110.728 8.17489H104.356L98.4443 14.8519V0H93.827V26.5557H98.4443V21.275L100.759 18.8124L105.24 26.5557H111.126L104.02 15.347L110.728 8.17489ZM15.1587 12.7066H16.9384V1.6756H15.1587V12.7066ZM9.53329 16.6798C10.2676 15.8166 11.3379 15.2835 12.6198 15.2835C15.2707 15.2835 16.7766 17.213 16.789 19.9422V26.5811H15.0218V19.8787C15.0218 18.165 14.1133 16.9464 12.3709 16.9464C10.7281 16.9464 9.53329 18.1904 9.53329 19.8406V26.5938H7.75358V10.6502H9.53329V16.6798ZM21.8171 5.95346C21.8171 4.30324 23.0118 3.05924 24.6546 3.05924C26.3721 3.05924 27.3055 4.30324 27.3055 5.99154V12.6939H29.0728V6.0677C29.0728 3.32581 27.5669 1.39633 24.916 1.39633C23.6092 1.39633 22.5016 1.95487 21.7673 2.86883V1.66291H20.0373V12.6939H21.8171V5.95346ZM3.23584 17.2891V22.5571C3.23584 24.512 4.40573 25.0071 5.7374 24.9182V26.5938C3.21095 26.8984 1.46858 25.3752 1.46858 22.5698V17.3018H0V15.5628H1.46858V13.2017H3.23584V15.5501H5.68762V17.2891H3.23584ZM24.4431 15.2835C21.4437 15.2835 19.0044 17.8984 19.0044 21.0846C19.0044 24.3216 21.4437 26.8477 24.5551 26.8477C27.0566 26.8477 28.8986 25.5148 29.6577 23.1664H27.766C27.1811 24.4485 26.0859 25.1975 24.5551 25.1975C22.7754 25.1975 21.0454 23.8519 20.8214 21.5543H29.9191C29.9316 17.6319 27.2433 15.2835 24.4431 15.2835ZM24.4555 16.9337C22.962 16.9337 21.3815 18.0508 20.921 19.9295H27.9403C27.5047 18.1396 26.0361 16.9337 24.4555 16.9337ZM62.7629 7.70522C57.7598 7.70522 53.7026 11.8815 53.7026 17.378C53.7026 22.8745 57.7598 26.9873 62.7629 26.9873C67.766 26.9873 71.8606 22.8872 71.8606 17.378C71.8606 11.8688 67.7785 7.70522 62.7629 7.70522ZM58.3199 17.4288C58.3199 20.5261 60.3111 22.6714 62.7629 22.6714C65.2147 22.6714 67.2184 20.5261 67.206 17.4288C67.206 14.2426 65.2147 12.0339 62.7629 12.0339C60.3111 12.0339 58.3199 14.2553 58.3199 17.4288ZM82.738 22.7094C80.1867 22.7094 78.1207 20.323 78.1207 17.4288C78.1207 14.4711 80.1867 12.0339 82.738 12.0339C84.4182 12.0339 85.8494 13.1001 86.4841 14.3568H91.425C90.3796 10.2186 87.0815 7.71791 82.7505 7.71791C77.3242 7.71791 73.4412 12.0719 73.4412 17.3907C73.4412 22.7094 77.3242 27 82.7505 27C87.1313 27 90.4169 24.5374 91.4623 20.3611H86.5215C85.9241 21.6305 84.4431 22.7094 82.738 22.7094ZM136.528 12.3512V18.8505C136.528 21.4147 137.685 22.3794 140 22.2398V26.5176C134.711 27.0889 131.91 23.8519 131.91 18.8124V12.3512H129.745V8.17489H131.91V3.50353H136.528V8.17489H139.788V12.3512H136.528ZM44.8289 1.78984H34.6111V26.5684H39.2284V17.7207H44.9284C49.72 17.7207 52.8438 14.3949 52.8438 9.79972C52.8438 4.92525 49.9067 1.78984 44.8289 1.78984ZM39.2408 13.3921H44.804C46.9322 13.3921 48.239 12.2877 48.239 9.78702C48.239 7.28632 46.9446 6.18195 44.804 6.18195H39.2408V13.3921ZM119.975 7.70522C114.897 7.70522 110.741 12.0592 110.741 17.378C110.741 22.6968 114.91 26.9873 119.975 26.9873C124.456 26.9873 127.642 24.4485 128.687 20.7038H123.746C122.974 22.1636 121.469 22.8491 119.925 22.8491C117.76 22.8491 116.005 21.4527 115.408 19.2059H129.023C129.708 11.9196 125.289 7.70522 119.975 7.70522ZM119.938 11.8434C117.834 11.8434 116.154 13.2017 115.495 15.347H124.456C123.895 13.2017 122.141 11.8434 119.938 11.8434Z" fill="black"/>
</svg>
