<?xml version="1.0" encoding="utf-8"?>
<!-- Generator: Adobe Illustrator 24.1.0, SVG Export Plug-In . SVG Version: 6.00 Build 0)  -->
<svg version="1.0" id="Layer_1" xmlns="http://www.w3.org/2000/svg" xmlns:xlink="http://www.w3.org/1999/xlink" x="0px" y="0px"
	 viewBox="0 0 162.9 40.4" style="enable-background:new 0 0 162.9 40.4;" xml:space="preserve">
<style type="text/css">
	.st0{fill:#5D4B75;}
</style>
<g>
	<path class="st0" d="M14.3,4.6l-1.4,2.7h-0.6l1.4-2.6h-1.5V4.2h2.2V4.6z M11.4,6.3c0,0.6-0.4,1-1.1,1c-0.5,0-0.9-0.2-1.2-0.5
		l0.4-0.4c0.2,0.3,0.5,0.4,0.8,0.4c0.3,0,0.5-0.2,0.5-0.5v0c0-0.3-0.3-0.5-0.7-0.5H9.9L9.9,5.5l0.8-0.9H9.4V4.2h2v0.4l-0.9,0.9
		C11,5.5,11.4,5.7,11.4,6.3L11.4,6.3z M8.7,4.6L7.3,7.2H6.7L8,4.6H6.5V4.2h2.2V4.6z M5.6,7.2H5V4.7L4.5,4.8L4.4,4.4l0.8-0.3h0.4V7.2
		z M16.5,0.9H2.4c0,0-1.7,0-1.7,1.4v35.9c0,0,0,1.4,1.7,1.4h6.2c0-2.2,0-4.4,0-6.6c0,0,0-0.1,0-0.1c0-0.2,0-0.4-0.1-0.5
		C8.2,32.3,8,32.1,7.8,32c-0.7-0.5-1.5-1.1-2.2-1.9C5,29.3,4.4,28.2,4.2,27c-0.1-0.8-0.1-1.7,0.2-2.3c0.1-0.3,0.3-0.5,0.5-0.7
		c0.2-0.2,0.2-0.5,0.1-0.8c-0.2-0.4-0.4-0.8-0.5-1.3c-0.1-0.4-0.2-0.9-0.1-1.3c0.1-0.5,0.3-0.9,0.5-1.1c0.2-0.3,0.5-0.3,0.7-0.7
		c-0.2-0.7-0.4-1.3-0.4-2.2c0-0.3,0-0.7,0.1-1c0.2-0.6,0.6-0.7,0.9-0.9c0.2-0.1,0.3-0.1,0.5-0.2c0.2-0.1,0.2-0.1,0.2-0.5
		c0-1.6,0.2-3,1-3.8c0.4-0.4,0.9-0.5,1.4-0.5c0.5,0,1,0.1,1.5,0.5c0.9,0.8,1.1,2.3,1.1,3.8c0,0.3,0,0.4,0.2,0.5
		c0.2,0.1,0.3,0.1,0.5,0.2c0.3,0.2,0.7,0.3,0.9,0.9c0.1,0.3,0.1,0.6,0.1,1c0,0.9-0.2,1.4-0.4,2.2c0.2,0.4,0.5,0.4,0.8,0.7
		c0.2,0.3,0.5,0.6,0.5,1.1c0.1,0.4,0,0.9-0.1,1.3c-0.1,0.5-0.3,0.9-0.5,1.3c-0.1,0.3-0.1,0.6,0.1,0.8c0.2,0.2,0.4,0.4,0.5,0.7
		c0.3,0.6,0.4,1.5,0.3,2.3c-0.3,1.3-0.8,2.3-1.5,3.1c-0.7,0.8-1.5,1.4-2.3,1.9c-0.2,0.1-0.4,0.3-0.7,0.4c-0.1,0.1-0.1,0.3-0.2,0.5
		c0,0,0,0.1,0,0.1c0,2.2,0,4.4,0,6.6h6.4c0,0,1.7,0,1.7-1.4V2.3C18.2,2.3,18.2,0.9,16.5,0.9"/>
</g>
<path class="st0" d="M158.3,36.4l2.7,3.3h1v-11h-1.5V37l-0.1-0.1c-2.2-2.7-4.4-5.4-6.6-8.1h-1v11h1.5v-8.3l0.1,0.1
	C155.7,33.1,157,34.8,158.3,36.4 M144,30.1h4.7v-1.4h-6.2v11h6.4v-1.4H144v-3.8h3.7V33H144L144,30.1L144,30.1z M138.8,34.2
	c0-1.8-0.8-3.4-2.2-4.5c-1-0.7-2.1-1-3.8-1h-3.3v11h3.3c1.6,0,2.8-0.3,3.8-1C137.9,37.6,138.8,35.9,138.8,34.2 M137.2,34.2
	c0,1.2-0.5,2.4-1.3,3.1c-0.8,0.6-1.7,0.9-3.2,0.9H131v-8.1h1.7c1.4,0,2.4,0.3,3.2,0.9C136.7,31.8,137.2,33,137.2,34.2 M117.1,31.4
	l0.1,0.1c2.2,2.7,4.4,5.4,6.6,8.1h1v-11h-1.5V37l-0.1-0.1c-1.4-1.7-2.9-3.5-4.3-5.2l-2.4-2.9h-1v11h1.5V31.4z M109.5,39.7h1.5v-11
	h-1.5V39.7z M106,38.3H101v-9.6h-1.5v11h6.4V38.3z M96.3,39.7l-3.9-5.2l0,0c0.6-0.1,0.9-0.3,1.3-0.6c0.7-0.6,1.1-1.4,1.1-2.2
	c0-0.9-0.4-1.7-1.1-2.2c-0.5-0.4-1.2-0.6-2.1-0.6h-3.8v11h1.5v-5.2l1.4,0l0,0l1.5,2c0.8,1.1,1.6,2.1,2.4,3.2H96.3z M91.5,33h-2.2
	v-2.9h2.2c0.6,0,1,0.1,1.3,0.4c0.3,0.3,0.4,0.6,0.4,1c0,0.4-0.2,0.8-0.4,1C92.6,32.9,92.2,33,91.5,33 M79,30.1h4.7v-1.4h-6.2v11h6.4
	v-1.4H79v-3.8h3.7V33H79L79,30.1L79,30.1z M73.7,34.2c0-1.8-0.8-3.4-2.2-4.5c-1-0.7-2.1-1-3.8-1h-3.3v11h3.3c1.6,0,2.8-0.3,3.8-1
	C72.9,37.6,73.7,35.9,73.7,34.2 M72.2,34.2c0,1.2-0.5,2.4-1.4,3.1c-0.7,0.6-1.7,0.9-3.2,0.9H66v-8.1h1.7c1.4,0,2.4,0.3,3.2,0.9
	C71.7,31.8,72.2,33,72.2,34.2 M52.1,31.4l0.1,0.1c1.2,1.5,2.4,2.9,3.6,4.4c1,1.3,2.1,2.5,3.1,3.8h1v-11h-1.5V37l-0.1-0.1l-2-2.5
	c-1.5-1.9-3.1-3.8-4.6-5.6h-1v11h1.5V31.4z M39.8,36.8h4.8l0,0c0.4,1,0.8,1.9,1.2,2.8h1.5l-4.5-11h-1c-1.2,2.9-2.4,5.7-3.5,8.6
	l-1,2.4h1.5c0.2-0.6,0.5-1.2,0.7-1.8L39.8,36.8z M40.5,35.4L40.5,35.4c0.6-1.4,1.1-2.7,1.7-4.1l0-0.1l0.3,0.6c0.5,1.2,1,2.3,1.4,3.5
	l0,0H40.5z M31.7,39.7l4.3-11h-1.5c-1.1,2.8-2.2,5.6-3.3,8.3l-0.1,0.2L31.1,37c-1.1-2.8-2.2-5.6-3.3-8.3h-1.5l0.9,2.3
	c1.1,2.9,2.3,5.8,3.4,8.6H31.7z M101.2,20.8l-3.9-5.2l0,0c0.6-0.1,0.9-0.3,1.3-0.6c0.7-0.6,1.1-1.4,1.1-2.2c0-0.9-0.4-1.7-1.1-2.2
	C98,10,97.4,9.8,96.5,9.8h-3.8v11h1.5v-5.2l1.4,0l0,0c0.9,1.3,1.9,2.5,2.8,3.8l1.1,1.5H101.2z M96.4,14.1h-2.2v-2.9h2.2
	c0.6,0,1,0.1,1.3,0.4c0.3,0.3,0.4,0.6,0.4,1c0,0.4-0.2,0.8-0.4,1C97.4,14,97,14.1,96.4,14.1 M83.9,11.2h4.7V9.8h-6.2v11h6.4v-1.4
	h-4.9v-3.8h3.7v-1.4h-3.7L83.9,11.2L83.9,11.2z M76.3,20.8h1.5v-11h-1.5V20.8z M68.5,19.6c-2.5,0-4.2-1.8-4.2-4.3
	c0-2.4,1.8-4.3,4.1-4.3c1.1,0,2.3,0.5,3,1.2l1-1c-1-1-2.4-1.6-4-1.6c-3.2,0-5.6,2.4-5.6,5.6c0,3.3,2.4,5.6,5.7,5.6
	c1.6,0,3.2-0.8,4.2-2l-1-0.9C71.2,18.6,70.1,19.6,68.5,19.6 M60.8,20.8l-3.9-5.2l0,0c0.6-0.1,0.9-0.3,1.3-0.6
	c0.7-0.6,1.1-1.4,1.1-2.2c0-0.9-0.4-1.7-1.1-2.2C57.6,10,57,9.8,56,9.8h-3.8v11h1.5v-5.2l1.4,0l0,0c0.8,1.1,1.6,2.1,2.4,3.2l1.6,2.1
	H60.8z M56,14.1h-2.2v-2.9H56c0.6,0,1,0.1,1.3,0.4c0.3,0.3,0.4,0.6,0.4,1c0,0.4-0.2,0.8-0.4,1C57,14,56.6,14.1,56,14.1 M43.5,11.2
	h4.7V9.8H42v11h6.4v-1.4h-4.9v-3.8h3.7v-1.4h-3.7L43.5,11.2L43.5,11.2z M32.5,18.4l3.4-5.3v7.6h1.5v-11h-1L32,16.6l0,0l-0.6-1
	c-1.2-2-2.5-3.9-3.7-5.8h-1v11h1.5v-7.6l0.1,0.2l3.2,5.1H32.5z"/>
</svg>
