<svg version="1.1" id="Layer_1" xmlns="http://www.w3.org/2000/svg" x="0" y="0" width="120" height="20" viewBox="0 0 120 20" style="enable-background:new 0 0 120 20" xml:space="preserve">
  <style>
    .st0,.st1{fill-rule:evenodd;clip-rule:evenodd;fill:#171719}.st1{fill:#12bfcc}
  </style>
  <g transform="translate(0 .79)">
    <path class="st0" d="M114.8 7.6h-10.2c-1.1 0-2-.9-2-2s.9-2 2-2h11.5l1.1-3.2h-12.7c-2.9 0-5.2 2.3-5.2 5.2 0 2.8 2.3 5.2 5.2 5.2h10.2c1.1 0 2 .9 2 2s-.9 2-2 2h-14L99.6 18h15.1c2.9 0 5.2-2.3 5.2-5.2 0-2.9-2.3-5.2-5.1-5.2m-36.4 5.3V.5h-3.2v12.4c0 2.8 2.3 5.1 5.1 5.1h8l1.1-3.2h-9.1c-1-.1-1.9-.9-1.9-1.9M92.1 17.9h3.2V.5h-3.2z"/>
    <path class="st1" d="M67.8 12.9c0 1-.8 1.9-1.9 1.9H55.1c-1 0-1.9-.8-1.9-1.9V5.5c0-1 .8-1.9 1.9-1.9h10.8c1 0 1.9.8 1.9 1.9v7.4zM65.9.5H55.1C52.3.5 50 2.8 50 5.6v7.3c0 2.8 2.3 5.1 5.1 5.1h10.8c2.8 0 5.1-2.3 5.1-5.1V5.5c0-2.8-2.3-5-5.1-5zM42.7 7.6H28.6V5.5c0-1 .8-1.9 1.9-1.9h10.4c1 0 1.9.8 1.9 1.9v2.1zM40.8.5H30.4c-2.8 0-5.1 2.3-5.1 5.1v7.3c0 2.8 2.3 5.1 5.1 5.1h13l1.1-3.2H30.4c-1 0-1.9-.8-1.9-1.9v-2.1h17.3V5.5c.1-2.8-2.2-5-5-5zM.1 17.9h3.2V.5H.1zM8.1 8.5l15.1-5.3L22.1 0 7 5.5c-1.5.5-2.6 2-2.6 3.7 0 1.7 1.1 3.2 2.6 3.7l15.1 5.4 1.1-3.1L8.1 10c-.3-.1-.5-.4-.5-.8 0-.3.2-.6.5-.7"/>
  </g>
</svg>
