<svg width="114" height="24" viewBox="0 0 114 24" fill="none" xmlns="http://www.w3.org/2000/svg">
  <path fill-rule="evenodd" clip-rule="evenodd" d="M88.8315 0.583742L91.9541 16.5733L94.9348 15.9895L91.8122 0L88.8315 0.583742ZM82.2386 2.85094C82.8291 2.04692 83.7297 1.53588 84.9398 1.31943C86.2214 1.08987 87.2814 1.26805 88.1203 1.85344L86.8463 3.91293C86.6078 3.72819 86.2318 3.68118 85.7192 3.77246C85.3415 3.84024 85.055 4.01132 84.8579 4.2857C84.6604 4.56008 84.6129 4.98203 84.7149 5.55266L84.894 6.55781L86.2913 6.30748L86.7224 8.72389L85.3257 8.97367L86.8523 17.5276L83.852 18.0643L82.3254 9.51096L80.7234 9.79736L80.2922 7.38095L81.8942 7.09455L81.6382 5.66197C81.4477 4.59233 81.6475 3.65604 82.2386 2.85094ZM63.0406 8.5386C64.011 8.42109 64.7097 7.53071 64.5956 6.58131C64.4815 5.63137 63.5891 4.90989 62.6187 5.02685C61.67 5.14109 60.9747 6.05387 61.0887 7.00382C61.2028 7.95322 62.0925 8.65283 63.0406 8.5386ZM42.7532 11.7907L39.3369 11.9744L35.7837 17.0663L35.2832 7.73677L32.422 7.89091L33.2555 23.4399L36.1172 23.2863L35.847 18.243L40.154 23.0693L43.4813 22.89L38.5886 17.5172L42.7532 11.7907ZM24.3718 21.247C25.2603 21.2202 25.9841 20.9092 26.5446 20.3146C27.1265 19.6964 27.3928 18.9317 27.3661 18.02C27.3388 17.1084 27.0282 16.3606 26.4115 15.8009C25.8165 15.2172 25.0748 14.9499 24.1867 14.9762C23.2987 15.0024 22.5744 15.3134 22.0149 15.931C21.4549 16.5262 21.1886 17.2904 21.2153 18.202C21.242 19.1137 21.5532 19.8609 22.1481 20.4446C22.7425 21.0054 23.4837 21.2727 24.3718 21.247ZM23.5732 12.2569C25.1272 12.211 26.3427 12.709 27.2406 13.7731L27.2018 12.4614L30.0662 12.3766L30.3943 23.494L27.5298 23.5787L27.4911 22.2669C26.6576 23.3825 25.4743 23.9515 23.9198 23.9974C22.4319 24.0417 21.1498 23.5235 20.0511 22.4205C18.9736 21.3175 18.3994 19.932 18.3509 18.2873C18.3023 16.6416 18.7941 15.2473 19.8049 14.0825C20.8371 12.9167 22.0853 12.3012 23.5732 12.2569ZM8.9743 13.8557C9.70787 12.7882 10.8186 12.2542 12.2841 12.2542C14.8391 12.2542 16.4831 14.0557 16.4831 16.8367V23.688H13.6175V17.0367C13.6175 15.702 12.9287 14.9237 11.7514 14.9237C10.4404 14.9237 9.6855 15.813 9.6855 17.4374V23.688H6.81942V17.0367C6.81942 15.702 6.13115 14.9237 4.95382 14.9237C3.68753 14.9237 2.86553 15.813 2.86553 17.4374V23.688H0V12.5658H2.86553V13.7447C3.53197 12.7434 4.55374 12.2542 5.95321 12.2542C7.30847 12.2542 8.33024 12.7882 8.9743 13.8557ZM48.7004 13.5305C47.1732 13.6622 46.2027 14.5711 45.992 16.0179L51.6358 15.5342C51.1751 14.0552 50.006 13.419 48.7004 13.5305ZM48.4804 10.9599C50.0966 10.8216 51.4939 11.26 52.6308 12.3012C53.7896 13.3408 54.438 14.669 54.5799 16.3311C54.6127 16.7083 54.6006 17.0887 54.5701 17.5156L46.2257 18.2305C46.7213 19.5947 47.8205 20.1927 49.5246 20.0462C50.6091 19.9533 51.418 19.5045 51.9087 18.7257L54.3245 19.8587C53.3742 21.5247 51.8268 22.4615 49.702 22.6435C47.8647 22.8009 46.3566 22.3719 45.1553 21.3591C43.954 20.3452 43.281 18.9962 43.1374 17.3117C42.9955 15.6495 43.4294 14.206 44.419 13.0041C45.4069 11.7814 46.7764 11.1059 48.4804 10.9599ZM63.1159 21.0765L61.7885 10.0335L64.6338 9.69078L65.9613 20.7338L63.1159 21.0765ZM71.8588 16.1699L71.2229 11.5874L73.7097 11.2414L73.3309 8.50963L70.8447 8.85506L70.4168 5.77074L67.6975 7.02458L68.0064 9.24969L66.0917 9.51587L66.4705 12.2482L68.3847 11.982L69.0206 16.5651C69.4392 19.5838 71.0248 20.5086 74.8581 19.5264L74.5011 16.9482C72.8849 17.2625 72.0236 17.3603 71.8588 16.1699ZM111.887 9.86787C111.955 9.85093 112.005 9.8154 112.035 9.75965C112.065 9.70499 112.072 9.64705 112.057 9.58474C112.04 9.51642 112.006 9.4645 111.953 9.43061C111.901 9.39618 111.84 9.38688 111.772 9.40383L111.607 9.44482C111.573 9.45302 111.56 9.47488 111.568 9.50932L111.657 9.87006C111.666 9.90504 111.687 9.91761 111.722 9.90886L111.887 9.86787ZM112.209 9.09337C112.347 9.17973 112.435 9.3049 112.476 9.46996C112.529 9.68367 112.483 9.86623 112.339 10.0193C112.313 10.0318 112.311 10.0548 112.334 10.0854L112.711 10.6374C112.721 10.65 112.728 10.6659 112.734 10.6866C112.749 10.7484 112.719 10.7888 112.643 10.8074L112.448 10.8555C112.379 10.873 112.326 10.8495 112.288 10.7861L111.924 10.2417C111.903 10.2177 111.883 10.2078 111.863 10.2133L111.801 10.2281C111.767 10.2368 111.754 10.2587 111.762 10.2931L111.902 10.8599C111.911 10.8943 111.906 10.926 111.888 10.9561C111.87 10.9867 111.844 11.0053 111.809 11.014L111.634 11.0572C111.6 11.066 111.568 11.0616 111.538 11.043C111.508 11.025 111.489 10.9987 111.48 10.9643L111.075 9.32512C111.066 9.29069 111.071 9.25898 111.089 9.22892C111.107 9.19886 111.133 9.17918 111.168 9.17044L111.744 9.02778C111.916 8.98515 112.071 9.00756 112.209 9.09337ZM104.863 2.40384L101.9 3.07339L103.522 10.2691C103.22 11.102 102.763 11.6093 102.152 11.7918C101.435 11.9317 100.856 11.847 100.416 11.5382C99.9759 11.2294 99.6763 10.7222 99.5169 10.0154L98.1442 3.92168L95.182 4.59069L96.7218 11.4267C96.9603 12.486 97.5241 13.3425 98.4122 13.9951C99.3007 14.6482 100.415 14.8237 101.755 14.5209C102.736 14.2995 103.527 13.7824 104.13 12.9708L104.252 13.5113C104.442 14.3591 104.39 15.0571 104.096 15.6064C103.8 16.1557 103.194 16.5339 102.278 16.7405C101.507 16.8405 100.627 16.6684 99.637 16.224L98.6196 18.1239C100.073 18.9831 101.546 19.2668 103.036 18.9744L103.657 18.7672C104.914 18.424 105.888 17.6506 106.581 16.4475C107.273 15.2445 107.453 13.9016 107.119 12.4182L104.863 2.40384ZM112.972 11.1469C113.176 10.9545 113.316 10.7227 113.392 10.4522C113.466 10.1821 113.467 9.89902 113.394 9.60333C113.327 9.32949 113.196 9.09392 113.001 8.89715C112.808 8.70093 112.577 8.56483 112.311 8.48831C112.044 8.41234 111.766 8.40961 111.478 8.48121C111.197 8.55117 110.954 8.68235 110.751 8.87474C110.547 9.06768 110.406 9.2956 110.329 9.55905C110.253 9.82305 110.248 10.092 110.316 10.3663C110.389 10.662 110.522 10.9118 110.714 11.1157C110.907 11.3196 111.137 11.46 111.403 11.536C111.669 11.6125 111.947 11.6147 112.235 11.5431C112.523 11.4715 112.769 11.3398 112.972 11.1469ZM112.472 7.97235C112.835 8.07237 113.146 8.25219 113.404 8.51291C113.661 8.77363 113.836 9.09337 113.93 9.47106C114.027 9.8624 114.023 10.2395 113.92 10.6008C113.815 10.9621 113.627 11.2731 113.353 11.5344C113.079 11.7956 112.749 11.9738 112.365 12.0689C111.981 12.164 111.607 12.1602 111.247 12.0558C110.887 11.952 110.576 11.765 110.316 11.4939C110.057 11.2228 109.878 10.8911 109.781 10.4992C109.688 10.1215 109.694 9.75691 109.8 9.40601C109.906 9.05511 110.095 8.75121 110.367 8.49432C110.638 8.23744 110.966 8.06144 111.351 7.96579C111.735 7.87068 112.109 7.87287 112.472 7.97235Z" fill="currentColor"></path>
</svg>