<svg width="39" height="53" viewBox="0 0 39 53" fill="none" xmlns="http://www.w3.org/2000/svg">
<path d="M30.874 -2.50048e-06C30.874 -2.50048e-06 19.733 -0.422003 19.733 11.148C31.3 11.148 30.874 -2.50048e-06 30.874 -2.50048e-06Z" fill="#81B2C5"/>
<path d="M19.456 25.5C16.765 25.5 15.79 27.264 15.79 29.355V31.676L22.939 30.282V28.286C22.939 26.428 21.5 25.498 19.456 25.498" fill="#2C7F9F"/>
<path d="M19.3 14.078C15.4698 14.0911 11.7295 15.2396 8.55204 17.3784C5.37461 19.5173 2.90276 22.5503 1.44907 26.0939C-0.00461006 29.6375 -0.374839 33.5327 0.385204 37.2867C1.14525 41.0408 3.00143 44.4852 5.71902 47.1843C8.43661 49.8834 11.8936 51.7161 15.6527 52.4505C19.4119 53.185 23.3044 52.7882 26.838 51.3104C30.3717 49.8326 33.3878 47.3401 35.5049 44.1482C37.622 40.9562 38.745 37.2082 38.732 33.378C38.7142 28.2419 36.657 23.3232 33.0129 19.7038C29.3687 16.0844 24.4361 14.0607 19.3 14.078ZM27.169 31.4C27.1988 32.0309 26.9832 32.6489 26.5675 33.1244C26.1518 33.5999 25.5682 33.8962 24.939 33.951L15.791 35.67V37.949C15.7784 38.4239 15.8619 38.8964 16.0364 39.3382C16.2109 39.7801 16.4728 40.1821 16.8065 40.5203C17.1402 40.8584 17.5387 41.1257 17.9781 41.3061C18.4176 41.4864 18.889 41.5762 19.364 41.57C19.842 41.6204 20.3252 41.5641 20.7788 41.4052C21.2325 41.2463 21.6452 40.9888 21.9872 40.6511C22.3293 40.3135 22.5922 39.9041 22.7569 39.4526C22.9217 39.0011 22.9842 38.5186 22.94 38.04C22.9324 37.8588 22.9617 37.678 23.0263 37.5086C23.0908 37.3392 23.1892 37.1847 23.3155 37.0545C23.4417 36.9243 23.5931 36.8213 23.7605 36.7515C23.9279 36.6818 24.1077 36.6469 24.289 36.649H25.728C25.9235 36.6225 26.1225 36.6416 26.3095 36.7048C26.4965 36.7679 26.6663 36.8734 26.8058 37.0129C26.9453 37.1525 27.0506 37.3224 27.1136 37.5094C27.1766 37.6964 27.1956 37.8955 27.169 38.091C27.169 42.17 24.196 45.467 19.364 45.467C14.764 45.467 11.564 42.261 11.564 37.949V29.722C11.564 25.079 14.443 21.597 19.69 21.597C23.916 21.597 27.168 24.152 27.168 28.286L27.169 31.4Z" fill="#2C7F9F"/>
</svg>
