<?xml version="1.0" encoding="UTF-8"?><svg id="Layer_2" xmlns="http://www.w3.org/2000/svg" viewBox="0 0 699.24 96.17"><g id="Laag_1"><g><path d="M128.44,34.24c.6-.1,1.1-.1,1.6-.1,1.7,0,3.1,.4,4.2,1.2,1.1,.8,1.7,2,1.9,3.6,1.8-1.8,3.9-3.1,6.5-4.1s5.3-1.5,8.3-1.5c3.9,0,7,.8,9.4,2.6s4.1,4.2,4.9,7.4c.4,1.7,.7,4.6,.7,8.7v26.9h-8.1v-26.6c0-3.1-.2-5.3-.6-6.5-.5-1.8-1.5-3.1-2.9-3.9-1.4-.8-3.4-1.2-6-1.2-2.3,0-4.3,.3-6.1,.9s-3.2,1.4-4.2,2.5-1.5,2.1-1.5,3.3v31.6h-8.1V34.24h0Z" fill="#4c4d55"/><path d="M185.84,58.14c.2,4.9,1.5,8.7,3.8,11.4s5.8,4,10.2,4c5.2,0,9.4-1.8,12.5-5.4,.8,.9,1.4,1.9,1.9,2.9s.8,1.8,.8,2.3c0,1.1-.7,2.2-2.1,3.2-3.4,2.5-8,3.8-13.8,3.8-6.9,0-12.3-2.1-16-6.2s-5.6-10.1-5.6-17.9c0-4.8,.9-8.9,2.6-12.3,1.7-3.4,4.2-6,7.3-7.9,3.1-1.8,6.6-2.8,10.5-2.8s7.1,.8,9.9,2.4,4.8,3.9,6.2,6.9,2.1,6.4,2.1,10.2c0,2.5-.1,4.2-.3,5.3-.1,.1-30,.1-30,.1Zm22.1-6c0-8.1-3.5-12.1-10.5-12.1-3.4,0-6.1,1.1-8.1,3.3-2.1,2.2-3.2,5.1-3.5,8.9h22.1v-.1Z" fill="#4c4d55"/><path d="M236.14,56.84l-14.5-22.3c2-.5,3.6-.8,4.6-.8,1.4,0,2.6,.2,3.5,.8s1.9,1.5,2.8,2.9l8.5,13.6,8.5-12.8c1-1.6,2-2.7,3.1-3.4,1-.7,2.3-1,3.7-1,1.5,0,2.9,.3,4.2,.8l-15.2,22.2,15.1,22c-1.1,.5-2.6,.8-4.4,.8-2.8,0-4.9-1.1-6.4-3.2l-9.2-13.5-8.6,13.2c-.8,1.3-1.8,2.2-2.9,2.7-1.1,.5-2.5,.8-4.1,.8s-2.8-.2-3.8-.7l15.1-22.1Z" fill="#4c4d55"/><path d="M268.14,33.94c.6-.1,1.1-.1,1.7-.1,4.2,0,6.4,2.2,6.4,6.4v22.1c0,2.8,.2,4.8,.6,6.2s1.1,2.3,2.1,3c.9,.6,1.9,1.1,2.9,1.4s2.4,.4,4,.4c2.1,0,4-.4,5.7-1.1s3.1-1.6,4.2-2.7,1.6-2.1,1.6-3V33.94c.6-.1,1.1-.1,1.7-.1,4.2,0,6.4,2.2,6.4,6.4v38.7h-8v-4.2c-3.2,3.7-7.9,5.6-14.1,5.6-2.5,0-4.8-.3-6.7-.9-1.9-.6-3.5-1.6-4.7-2.9s-2.1-3-2.8-5c-.6-2.1-.9-5.1-.9-9.2l-.1-28.4h0Z" fill="#4c4d55"/><path d="M315.24,73.04l24.5-31.9h-24.2c0-2.4,.5-4.2,1.5-5.3s2.6-1.7,4.7-1.7h24.1c2.6,0,4,1.1,4,3.3v2.3l-25,32.2h19.6c2.3,0,3.9,.6,4.8,1.7,1,1.1,1.4,2.9,1.4,5.3h-35.5l.1-5.9h0Z" fill="#4c4d55"/><path d="M359.94,11.74c.6-.1,1.1-.1,1.7-.1,2.1,0,3.7,.5,4.7,1.6s1.5,2.7,1.5,4.8v20.8c1.6-1.8,3.6-3.1,6.1-4.1s5.2-1.5,8.2-1.5c3.9,0,7.1,.9,9.7,2.7s4.2,4.2,4.9,7.3c.4,1.7,.7,4.6,.7,8.7v26.9h-8.1v-30c0-1.2-.2-2.1-.5-3.1-.9-3.4-3.9-5.1-8.9-5.1-2.3,0-4.3,.3-6.2,1-1.8,.7-3.3,1.5-4.3,2.6-1,1-1.5,2.1-1.5,3.3v31.5h-8.1l.1-67.3h0Z" fill="#4c4d55"/><path d="M417.44,58.14c.2,4.9,1.5,8.7,3.8,11.4s5.8,4,10.2,4c5.2,0,9.4-1.8,12.5-5.4,.8,.9,1.4,1.9,1.9,2.9s.8,1.8,.8,2.3c0,1.1-.7,2.2-2.1,3.2-3.4,2.5-8,3.8-13.8,3.8-7,0-12.3-2.1-16-6.2s-5.6-10.1-5.6-17.9c0-4.8,.9-8.9,2.6-12.3,1.7-3.4,4.2-6,7.3-7.9,3.1-1.8,6.6-2.8,10.5-2.8s7.1,.8,9.9,2.4c2.7,1.6,4.8,3.9,6.2,6.9,1.4,3,2.1,6.4,2.1,10.2,0,2.5-.1,4.2-.3,5.3-.1,.1-30,.1-30,.1Zm22.1-6c0-8.1-3.5-12.1-10.5-12.1-3.4,0-6.1,1.1-8.1,3.3-2.1,2.2-3.2,5.1-3.5,8.9h22.1v-.1Z" fill="#4c4d55"/><path d="M460.34,44.34c-.5-.8-.9-1.7-1.3-2.7-.3-.9-.5-1.7-.5-2.3,0-1.1,.8-2.1,2.6-3s3.8-1.7,6.4-2.2,5.1-.8,7.6-.8c5.9,0,10.2,1.3,12.9,3.8,2.7,2.5,4,6.8,4,12.8v18.7c0,1.8,.1,3.1,.3,4s.5,1.6,1.1,1.9c.5,.3,1.6,.5,3.3,.5v3.8c-1.3,.4-2.9,.7-4.6,.7-4.7,0-7.2-1.8-7.7-5.4-2,2-4.2,3.5-6.5,4.4s-4.9,1.3-7.9,1.3c-4.5,0-8-1.1-10.5-3.4s-3.7-5.6-3.7-9.9c0-5.1,2.1-9,6.4-11.7,4.3-2.8,10.2-4.2,18-4.5,1.9,0,3.2,0,4,.1v-1.4c0-3.2-.8-5.4-2.3-6.7s-4.1-2-7.5-2c-2.5,0-4.7,.3-6.7,.9s-4.1,1.7-6.2,3.2l-1.2-.1h0Zm23.8,12.1h-2.8c-5.8,0-10.1,.8-13.1,2.4-3,1.6-4.5,4-4.5,7.2,0,2.3,.7,4.1,2,5.4,1.4,1.2,3.4,1.8,6,1.8,2.1,0,4.1-.4,6-1.1s3.5-1.7,4.6-2.8c1.1-1.1,1.7-2.2,1.7-3.1l.1-9.8h0Z" fill="#4c4d55"/><path d="M506.44,11.74c.6-.1,1.1-.1,1.7-.1,4.2,0,6.4,2.2,6.4,6.4v52c0,1.8,.1,3,.4,3.6s.7,1.1,1.3,1.4,1.6,.4,2.8,.4v3.4c-1.3,.4-3.1,.7-5.2,.7-1.7,0-3.1-.3-4.2-.8-1.1-.6-1.9-1.5-2.4-2.7s-.8-3.3-.8-6.2V11.74h0Z" fill="#4c4d55"/><path d="M529.14,20.74c.6-.1,1.1-.1,1.7-.1,4.2,0,6.3,2.2,6.3,6.4v7.3h14.1v6.8h-14.1v24.5c0,5.2,2,7.8,6.2,7.8,1.1,0,2.1-.2,3.2-.7,1-.4,2-1,2.9-1.7s1.5-1.3,1.8-1.7c1.8,2.3,2.8,4,2.8,5.3,0,.9-.6,1.8-1.8,2.8s-2.7,1.7-4.4,2.2-3.6,.8-5.6,.8c-6.3,0-10.3-2.4-12-7.1-.6-1.8-1-4.5-1-8.2V20.74h-.1Z" fill="#4c4d55"/><path d="M563.04,11.74c.6-.1,1.1-.1,1.7-.1,2.2,0,3.7,.5,4.7,1.6s1.5,2.7,1.5,4.8v20.8c1.6-1.8,3.6-3.1,6.1-4.1s5.2-1.5,8.2-1.5c3.9,0,7.2,.9,9.7,2.7,2.6,1.8,4.2,4.2,4.9,7.3,.4,1.7,.7,4.6,.7,8.7v26.9h-8.1v-30c0-1.1-.2-2.1-.5-3.1-.9-3.4-3.8-5.1-8.9-5.1-2.3,0-4.3,.3-6.2,1-1.8,.7-3.2,1.5-4.3,2.6s-1.5,2.1-1.5,3.3v31.5h-8V11.74h0Z" fill="#4c4d55"/></g><g><path d="M56.94,60.44q-.1,.1,0,0l-.2,.1c-.3,.2-.7,.5-1,.7l-13.2,7.6h-.1l-19.7,11.4h0c-7.2,4.1-16.5,1.6-20.7-5.6-4.2-7.3-1.7-16.6,5.6-20.7l19.8-11.4,6.6,11.6,.1,.1q0,.1,.1,.1l.8,1.4,.8,1.3h0c.3,.5,.7,.9,1.1,1.4,.6,.7,1.3,1.2,2,1.8,.7,.5,1.5,1,2.3,1.4,.3,.1,.5,.2,.8,.4,.2,.1,.4,.2,.6,.2,.3,.1,.7,.2,1.1,.4,.3,.1,.6,.2,.8,.2,.6,.1,1.1,.2,1.7,.3h.3c.5,.1,1,.1,1.4,.1h.2c1.2,0,2.5-.2,3.7-.5h0c.6-.2,1.2-.4,1.8-.6h.1c.3-.1,.6-.3,.9-.4s.6-.3,.9-.5l1.4-.8Z" fill="#e22b1c"/><path d="M61.54,41.04c-.1-.2-.2-.3-.2-.5l-.1-.2c0,.1,.1,.1,.1,.1,.1,.1,.1,.2,.2,.3-.1,.2,0,.2,0,.3Z" fill="#e62c26"/><path d="M62.04,42.04c-.1-.2-.2-.5-.4-.8,0,.1,.1,.2,.1,.2,.2,.3,.3,.6,.4,.9h0c0-.1-.1-.2-.1-.3Z" fill="#e62c26"/><path d="M39.44,35.64c-.2,.1-.4,.3-.6,.4-.1,0-.1,.1-.1,.1h-.1c-.1,.1-.3,.2-.4,.4l-.3,.3s-.1,0-.1,.1c-.2,.2-.4,.4-.7,.6l-.7,.7c-.5,.6-1,1.2-1.4,1.9-.1,.2-.2,.3-.3,.5-.3,.5-.6,1.1-.8,1.7,0,0,0,.1-.1,.1-.1,.1-.1,.3-.2,.4s-.1,.3-.2,.5h0c-.1,.3-.2,.6-.3,.9h0c-.1,.3-.2,.6-.2,.9-.1,.2-.1,.5-.1,.7-.1,.4-.1,.7-.1,1.1-.1,1.3,0,2.7,.2,4,.1,.3,.1,.6,.2,.9,.1,.3,.2,.6,.3,.9,.1,.4,.3,.8,.5,1.3l.1,.1-6.7-11.6,11.9-6.9h.2Z" fill="#c92522"/><path d="M61.04,40.14c-4.3-7-13.3-9.3-20.5-5.2h0l-1.1,.7s-.1,0-.1,.1l-11.9,6.9-11.4-19.9c-4.2-7.2-1.6-16.5,5.6-20.7h0c7.3-4.2,16.5-1.7,20.7,5.6l11.3,19.7,7.4,12.8Z" fill="#eb706c"/><path d="M58.54,59.14l-.1,.1c-.1,0-.1,.1-.1,.1-.2,.2-.4,.3-.6,.5-.1,0-.1,.1-.2,.1-.2,.2-.4,.3-.7,.5-.4,.3-.8,.6-1.3,.8l-13.2,7.5h0l-6.7-11.8c.3,.5,.7,.9,1.1,1.4,.6,.7,1.3,1.2,2,1.8,.7,.5,1.5,1,2.3,1.4,.3,.1,.5,.2,.8,.4,.2,.1,.4,.2,.6,.2,.3,.1,.7,.2,1.1,.4,.3,.1,.6,.2,.8,.2,.6,.1,1.1,.2,1.7,.3h.3c.5,.1,1,.1,1.4,.1h.2c1.2,0,2.5-.2,3.7-.5h0c.6-.2,1.2-.4,1.8-.6h.1c.3-.1,.6-.3,.9-.4s.6-.3,.9-.5l1.3-.8c.2-.1,.3-.2,.5-.3,0,0,.1,0,.1-.1,.3-.2,.5-.4,.8-.6,.3,0,.4-.1,.5-.2Z" fill="#ed6a70"/><path d="M59.54,58.14c-.1,.2-.3,.3-.4,.5-.2,.2-.3,.4-.5,.5l.4-.4c.1-.2,.3-.4,.5-.6Z" fill="#ed6a70"/><path d="M60.74,56.54c-.1,.2-.3,.4-.4,.7,0,.1-.1,.1-.1,.1-.1,.2-.2,.3-.4,.5,.3-.5,.6-.9,.9-1.3Z" fill="#ed6a70"/><path d="M60.74,56.54q.1-.1,0,0,.1-.1,0,0c.1-.1,.1,0,0,0Z" fill="#ed6a70"/><path d="M61.04,56.14c-.1,.1-.2,.2-.2,.3h0c.1-.1,.1-.2,.2-.3Z" fill="#ed6a70"/><path d="M61.74,54.74c.1-.1,.1-.3,.2-.4,0,.1-.1,.3-.2,.4,0,.1-.1,.2-.1,.2-.1,.2-.2,.4-.3,.7v-.1c.2-.2,.3-.5,.4-.8Z" fill="#ed6a70"/><path d="M62.54,52.94h0c-.1,.3-.2,.6-.3,.8q0,.1-.1,.1c-.1,.2-.1,.3-.2,.5,.1-.2,.1-.3,.2-.5,.2-.3,.3-.6,.4-.9Z" fill="#ed6a70"/><path d="M62.84,52.04c-.1,.2-.1,.3-.1,.5,0,.1-.1,.1-.1,.2,0-.3,.1-.5,.2-.7Z" fill="#ed6a70"/><path d="M62.84,51.94c.1-.3,.2-.6,.2-.9q0,.1-.1,.2c0,.2-.1,.4-.1,.7h0Z" fill="#ed6a70"/><path d="M33.34,51.94c.1,.3,.2,.6,.3,.9-.1-.2-.2-.5-.3-.9h0Z" fill="#3dbcd4"/><path d="M34.14,54.14c-.1-.1-.1-.2-.2-.3-.1-.3-.2-.6-.3-.9h0c.1,.4,.3,.8,.5,1.2Z" fill="#3dbcd4"/><path d="M35.74,57.04h0c-.2-.2-.3-.4-.5-.7-.1-.1-.1-.2-.2-.3l-.2-.4c-.2-.3-.3-.6-.5-.9-.1-.1-.1-.2-.1-.3s-.1-.1-.1-.2l.8,1.4,.8,1.4Z" fill="#3dbcd4"/><path d="M38.84,60.24c-.7-.5-1.4-1.1-2-1.8,.7,.7,1.3,1.3,2,1.8Z" fill="#3dbcd4"/><path d="M37.84,36.84c-.2,.2-.4,.4-.7,.6h0c.3-.2,.5-.4,.7-.6Z" fill="#3dbcd4"/><path d="M46.44,63.14c.5,.1,1,.1,1.4,.1-.5,0-.9,0-1.4-.1Z" fill="#3dbcd4"/><path d="M44.54,62.84c.6,.1,1.1,.2,1.7,.3-.6-.1-1.2-.1-1.7-.3Z" fill="#3dbcd4"/><path d="M48.14,63.24c1.2,0,2.5-.2,3.7-.5-1.2,.4-2.5,.5-3.7,.5Z" fill="#3dbcd4"/><path d="M51.84,62.74c.6-.2,1.2-.4,1.8-.6-.5,.3-1.2,.5-1.8,.6Z" fill="#3dbcd4"/><path d="M86.54,43.44l-17.8,10.2-7.3-12.8-.2-.3-.1-.2-.1-.2c-4.3-7-13.3-9.3-20.5-5.2h0l-1.1,.7c.3-.2,.7-.4,1-.7h0l13.2-7.6,17.8-10.3c7.3-4.2,16.5-1.7,20.7,5.6,4.2,7.3,1.7,16.6-5.6,20.8Z" fill="#70c8df"/><path d="M33.34,44.24c-.1,.3-.2,.6-.2,.9,0-.3,.1-.6,.2-.9h0Z" fill="#019acd"/><path d="M33.64,43.34c-.1,.3-.2,.6-.3,.9,.1-.3,.2-.6,.3-.9h0Z" fill="#019acd"/><path d="M33.94,42.44c-.1,.3-.2,.6-.3,.9h0c.1-.4,.2-.6,.3-.9Z" fill="#019acd"/><path d="M37.84,36.84c-.2,.2-.4,.4-.7,.6h0c.3-.2,.5-.4,.7-.6Z" fill="#019acd"/><path d="M38.74,36.14h0c-.2,.2-.3,.3-.5,.4,.1-.2,.3-.3,.5-.4h0Z" fill="#019acd"/><path d="M39.44,35.64c-.2,.1-.4,.3-.6,.4,.1-.1,.3-.2,.4-.3,.1-.1,.2-.1,.2-.1Z" fill="#019acd"/><path d="M61.04,40.14c-4.3-7-13.3-9.3-20.5-5.2h0l-1.1,.7c.3-.2,.7-.5,1-.7h0l13.2-7.6,7.4,12.8Z" fill="#019acd"/><path d="M68.74,53.64l-11.8,6.8-.1,.1-.1,.1-1.2,.7h0c-.3,.2-.6,.3-.9,.5,.3-.1,.6-.3,.9-.5l1.3-.8c.2-.1,.3-.2,.5-.3,0,0,.1,0,.1-.1,.3-.2,.5-.4,.8-.6,.1-.1,.2-.2,.4-.3s.2-.2,.4-.4l.6-.6,.2-.2q.1-.1,.1-.2c.3-.4,.6-.8,.9-1.3h0c.1-.1,.2-.2,.2-.3,.1-.1,.1-.2,.2-.4l.1-.1v-.1q.1-.1,.1-.2c.1-.1,.1-.2,.2-.4,0-.1,.1-.1,.1-.2h0c.1-.1,.1-.3,.2-.4,.1-.2,.1-.3,.2-.5,.1-.3,.2-.6,.3-.9,0-.1,.1-.1,.1-.2,.1-.2,.1-.5,.2-.7h0v-.1c.1-.2,.1-.4,.1-.6q0-.1,.1-.2c.1-.2,.1-.5,.1-.7,0-.1,.1-.2,.1-.3v-.2c0-.2,.1-.5,.1-.8,.1-1.9-.1-3.9-.7-5.8-.1-.3-.2-.6-.3-.9h0c-.1-.3-.2-.5-.2-.6-.1-.2-.1-.3-.2-.5-.1-.1-.1-.2-.1-.2,0-.1-.1-.1-.1-.2-.1-.2-.2-.3-.2-.5l.2,.3,7.1,12.8Z" fill="#007bb9"/><path d="M74.54,94.14h0c-7.3,4.2-16.6,1.7-20.7-5.6l-11.4-19.7-7.2-12.5c-.1-.1-.1-.2-.2-.3l-.2-.4c-.2-.4-.5-.9-.7-1.4l.8,1.4,.8,1.3h0c.3,.5,.7,.9,1.1,1.4,.6,.7,1.3,1.2,2,1.8,.7,.5,1.5,1,2.3,1.4,.3,.1,.5,.2,.8,.4,.2,.1,.4,.2,.6,.2,.3,.1,.7,.2,1.1,.4,.3,.1,.6,.2,.8,.2,.6,.1,1.1,.2,1.7,.3h.3c.5,.1,1,.1,1.4,.1h.2c1.2,0,2.5-.2,3.7-.5h0c.6-.2,1.2-.4,1.8-.6h.1c.3-.1,.6-.3,.9-.4s.6-.3,.9-.5h0l1.2-.7,.1-.1,.1-.1,11.8-6.8,11.4,20c4.2,7.3,1.7,16.5-5.5,20.7Z" fill="#0397c9"/><path d="M33.14,51.04c-.2-1.3-.3-2.7-.2-4-.1,1.3-.1,2.7,.2,4Z" fill="#7b2278"/><path d="M33.34,44.24c-.1,.3-.2,.6-.2,.9,0-.3,.1-.6,.2-.9h0Z" fill="#7b2278"/><path d="M33.64,43.34c-.1,.3-.2,.6-.3,.9,.1-.3,.2-.6,.3-.9h0Z" fill="#7b2278"/><path d="M33.94,42.44c-.1,.3-.2,.6-.3,.9h0c.1-.4,.2-.6,.3-.9Z" fill="#7b2278"/><path d="M35.74,57.04h0c-.2-.2-.3-.4-.5-.7-.1-.1-.1-.2-.2-.3l-.2-.4c-.2-.3-.3-.6-.5-.9-.1-.1-.1-.2-.1-.3s-.1-.2-.1-.2c0-.1-.1-.1-.1-.2l-.1-.2c-.1-.3-.2-.6-.3-.9h0c.1,.4,.3,.8,.5,1.3q0,.1,.1,.1l.8,1.4,.7,1.3Z" fill="#7b2278"/><path d="M57.34,60.14l-.3,.3-.1,.1c.1-.2,.3-.3,.4-.4Z" fill="#7b2278"/><path d="M58.24,59.44l-.4,.4c-.1,0-.1,.1-.2,.1s-.1,.1-.2,.1c.3-.2,.5-.4,.8-.6Z" fill="#7b2278"/><path d="M58.54,59.14l-.1,.1c-.1,0-.1,.1-.1,.1l-.1,.1c.1-.1,.2-.2,.3-.3Z" fill="#7b2278"/><path d="M59.54,58.14c-.1,.2-.3,.3-.4,.5q-.1,.1-.2,.1c.2-.2,.4-.4,.6-.6Z" fill="#7b2278"/><path d="M60.74,56.54c-.2,.3-.3,.5-.5,.8-.1,.2-.2,.3-.4,.5,.3-.5,.7-.9,.9-1.3Z" fill="#7b2278"/><path d="M61.04,40.14c-4.3-7-13.3-9.3-20.5-5.2h0l-1.1,.7c.3-.2,.7-.4,1-.7h0l13.2-7.6,7.4,12.8Z" fill="#792068"/><path d="M61.84,54.74c0,.1-.1,.1-.1,.2-.1,.1-.1,.2-.2,.4,0-.2,.1-.4,.3-.6Z" fill="#7b2278"/><path d="M62.14,53.84h0c-.1,.2-.1,.3-.2,.5,.1-.2,.2-.3,.2-.5Z" fill="#7b2278"/><path d="M62.14,42.44c-.1-.3-.3-.6-.4-.9,.2,.2,.3,.5,.4,.9h0Z" fill="#7b2278"/><path d="M62.54,52.94h0c-.1,.3-.2,.6-.3,.8,0,0,0,.1-.1,.1,.2-.3,.3-.6,.4-.9Z" fill="#7b2278"/><path d="M62.84,52.04c-.1,.2-.1,.3-.1,.5,0,.1-.1,.1-.1,.2,0-.3,.1-.5,.2-.7Z" fill="#7b2278"/><path d="M63.04,51.04q0,.1-.1,.2c-.1,.2-.1,.4-.1,.6v.1c0-.3,.1-.6,.2-.9Z" fill="#7b2278"/><path d="M55.74,61.24l-13.2,7.6-7.6-13.2c-4-6.9-1.9-15.6,4.4-20l1.2-.7c7.2-4.1,16.4-1.7,20.6,5.4l.1,.2c4.2,7.4,1.7,16.6-5.5,20.7Z" fill="#561651"/></g><g isolation="isolate"><path d="M609.34,2.64c.5,0,.9-.1,1.3-.1,2.5,0,4.1,1.1,4.6,3.2,1-1.2,2.4-2.1,4.1-2.7,1.7-.6,3.6-1,5.7-1,4.3,0,7.6,1.4,10,4.1s3.6,6.6,3.6,11.7c0,3.7-.6,6.7-1.7,9.2-1.2,2.5-2.8,4.4-5,5.7-2.2,1.3-4.7,2-7.6,2-2,0-3.8-.3-5.3-1-1.6-.6-2.8-1.5-3.6-2.5v16.8h-6V2.64h-.1Zm6,23.7c.8,1.1,2,1.9,3.5,2.6s3,1,4.5,1c2.9,0,5.1-1,6.6-3s2.3-4.9,2.3-8.8c0-7.6-3-11.4-9-11.4-2.2,0-4.1,.4-5.6,1.3-1.5,.9-2.3,1.9-2.3,3.2v15.1Z" fill="#4d4d55"/><path d="M647.14,2.64c.5,0,.9-.1,1.3-.1,1.3,0,2.3,.3,3.1,.9,.8,.6,1.3,1.4,1.4,2.4,.8-1.1,1.9-2.1,3.3-2.8,1.4-.7,2.8-1.1,4.3-1.1s2.7,.2,3.7,.7c.9,.5,1.4,1.2,1.4,2,0,.6-.2,1.3-.5,2.1-.3,.8-.7,1.6-1.2,2.2-.7-.6-1.4-1-2.1-1.3-.7-.3-1.6-.4-2.6-.4-1.6,0-3,.5-4.2,1.4-1.2,.9-1.8,1.9-1.8,3.1v21.9h-6V2.64h-.1Z" fill="#4d4d55"/><path d="M699.24,18.14c0,3.4-.6,6.3-1.9,8.9-1.2,2.5-3,4.5-5.4,5.8-2.3,1.3-5.1,2-8.4,2-4.9,0-8.8-1.4-11.5-4.3-2.7-2.9-4-6.9-4-12.1,0-3.3,.7-6.1,2-8.6s3.2-4.4,5.5-5.7c2.4-1.3,5.1-1.9,8.2-1.9,4.9,0,8.7,1.4,11.3,4.3,2.9,2.7,4.2,6.6,4.2,11.6Zm-6.3,.1c0-7.5-3-11.3-9.1-11.3-3,0-5.3,1-6.9,3-1.6,2-2.4,4.8-2.4,8.3,0,3.7,.8,6.6,2.4,8.7,1.6,2.1,3.9,3.1,6.8,3.1,3.1,0,5.4-1,6.9-3,1.5-2,2.3-4.9,2.3-8.8Z" fill="#4d4d55"/></g></g></svg>