<svg xmlns="http://www.w3.org/2000/svg" width="150" height="50" viewBox="0 0 364.25 129.24">
  <defs>
    <style>.cls-1{fill:#555d71;}.cls-2{fill:#898e9a;}.cls-3{fill:#e4003a;}.cls-4{fill:#7783a0;}.cls-5{fill:#f8ad07;}</style>
  </defs>
  <title>SDLogo</title>
  <g id="Layer_2" data-name="Layer 2">
    <g id="Layer_1-2" data-name="Layer 1">
      <path class="cls-1" d="M93.61,91.26a23.72,23.72,0,0,0,11.17,3.24c6,0,8.89-3,8.89-6.87s-2.38-6.21-8.5-8.5C96.75,76.06,92.84,71.56,92.84,66c0-7.47,6.11-13.58,16-13.58a21.47,21.47,0,0,1,11.28,2.87l-2,6a19.08,19.08,0,0,0-9.46-2.68c-5,0-7.65,2.87-7.65,6.31,0,3.92,2.68,5.64,8.7,7.93,7.93,3,12.14,7,12.14,14,0,8.21-6.4,14-17.21,14a26.43,26.43,0,0,1-13-3.25Z" />
      <path class="cls-1" d="M168.77,31.91V87.81c0,4.12.09,8.8.39,12H161.6l-.38-8H161c-2.58,5.15-8.13,9.08-15.68,9.08-11.19,0-19.88-9.47-19.88-23.51-.09-15.49,9.56-24.85,20.74-24.85,7.17,0,12,3.34,14,7h.19V31.91Zm-8.41,40.43A15.44,15.44,0,0,0,160,68.7,12.38,12.38,0,0,0,147.84,59C139.14,59,134,66.69,134,76.83c0,9.46,4.68,17.2,13.67,17.2A12.74,12.74,0,0,0,160,84a14.53,14.53,0,0,0,.38-3.64Z" />
      <path class="cls-2" d="M184.08,53.51l6.22,23.42c1.24,5.16,2.48,10,3.35,14.82h.28C195,87.05,196.5,82.09,198,77l7.55-23.52h7.08l7.17,23.13c1.71,5.45,3.06,10.41,4.11,15.1h.28a139.09,139.09,0,0,1,3.54-15l6.6-23.22h8.31L227.76,99.77h-7.65L213,77.69c-1.62-5.26-3-9.84-4.1-15.3h-.19a137.24,137.24,0,0,1-4.21,15.38l-7.45,22h-7.65l-14-46.26Z" />
      <path class="cls-2" d="M265.28,100.82c-12.42,0-22.17-9.18-22.17-23.8,0-15.49,10.23-24.56,22.94-24.56,13.29,0,22.27,9.65,22.27,23.7,0,17.2-11.95,24.66-22.94,24.66Zm.28-6.32c8,0,14.05-7.55,14.05-18.06,0-7.84-3.92-17.68-13.86-17.68s-14.13,9.18-14.13,18c0,10.14,5.73,17.77,13.84,17.77Z" />
      <path class="cls-2" d="M295.24,67.94c0-5.45-.1-10.14-.38-14.44h7.35l.38,9.08h.29c2.1-6.21,7.26-10.13,12.9-10.13a8.88,8.88,0,0,1,2.3.28v7.83a29.39,29.39,0,0,0-3-.18c-5.93,0-10.14,4.48-11.28,10.7a26.66,26.66,0,0,0-.29,4V99.76h-8.4Z" />
      <path class="cls-2" d="M332,53.51l6.59,9.85c1.72,2.68,3.15,5,4.68,7.55h.29c1.53-2.68,3.06-5.07,4.69-7.55l6.41-9.85h9.17L348.09,75.87l16.16,23.9h-9.56L347.9,89.35c-1.81-2.67-3.34-5.26-5-8h-.19c-1.53,2.77-3.16,5.25-4.88,8l-6.69,10.42h-9.26l16.43-23.61L322.67,53.51Z" />
      <polygon class="cls-3" points="36.23 36.16 25.81 129.24 42.32 129.24 53.42 36.16 36.23 36.16" />
      <polygon class="cls-4" points="6.62 100.39 22.3 100.39 16.05 64.97 0 64.97 6.62 100.39" />
      <polygon class="cls-5" points="75.86 0 54.5 100.35 71.29 100.35 93.73 0 75.86 0" />
    </g>
  </g>
</svg>